# This file uses centimeters as units for non-parametric coordinates.

mtllib glass_18.mtl
g default
v 11.894447 -3.917150 -0.016174
v 6.393885 -7.536356 -0.015316
v 11.744203 -3.670401 -0.013440
v 6.393290 -7.537670 -1.961355
v 4.806172 -11.669622 -1.961354
v 4.807039 -11.669622 -0.017112
v 11.208651 -11.669622 -1.961354
v 10.716209 -11.669622 -0.065744
v 10.699865 -11.669622 -0.017538
v 11.918374 -3.545130 -1.961355
v 12.332938 -4.218814 -1.961355
v 12.350213 -4.247251 -1.961355
v 12.209479 -5.163213 -1.961355
v 6.393290 -7.537670 -1.961355
v 4.806172 -11.669622 -1.961354
v 10.699865 -11.669622 -0.017538
v 10.716209 -11.669622 -0.065744
v 4.807039 -11.669622 -0.017112
v 11.918374 -3.545130 -1.961355
v 12.209479 -5.163213 -1.961355
v 11.208651 -11.669622 -1.961354
v 12.332938 -4.218814 -1.961355
v 12.350213 -4.247251 -1.961355
vt 0.117147 0.117147
vt 1.000000 0.115749
vt 1.000000 0.000000
vt 1.000000 1.000000
vt 0.560623 0.750000
vt 0.557889 0.871446
vt 0.557798 0.874535
vt 0.525084 0.874562
vt 0.525079 0.750000
vt 0.669328 0.658890
vt 0.712160 0.689563
vt 0.704933 0.691864
vt 0.704628 0.691960
vt 0.694801 0.691179
vt 0.625000 0.685623
vt 0.625000 0.650079
vt 0.000000 0.000000
vt 0.884386 0.000000
vt 1.000000 0.115470
vt 1.000000 0.000000
vt 0.979139 0.979139
vt 0.115470 0.115470
vt 1.000000 0.117147
vt 0.961280 0.076807
vt 0.960977 0.960977
vt 0.000000 0.000000
vt 0.884251 0.000000
vt 0.115690 0.115690
vt 0.115614 0.000000
vt 1.000000 0.000000
vt 1.000000 0.979139
vt 0.978107 0.978107
vt 0.978107 0.000000
vt 0.977948 0.861426
vt 0.115690 0.000000
vt 1.000000 0.960977
vt 0.020230 0.000000
vt 0.000000 0.000000
vn -0.585703 0.810526 -0.000245
vn -0.585679 0.810543 -0.000345
vn -0.585698 0.810529 -0.000266
vn -0.585673 0.810547 -0.000368
vn 0.000000 -1.000000 0.000000
vn 0.000000 -1.000000 0.000000
vn 0.000000 -1.000000 0.000000
vn 0.000000 -1.000000 0.000000
vn 0.000000 -1.000000 0.000000
vn 0.000000 0.000000 -1.000000
vn 0.000000 0.000000 -1.000000
vn 0.000000 0.000000 -1.000000
vn 0.000000 0.000000 -1.000000
vn 0.000000 0.000000 -1.000000
vn 0.000000 0.000000 -1.000000
vn 0.000000 0.000000 -1.000000
vn 0.849350 0.515930 0.111448
vn 0.849350 0.515930 0.111448
vn 0.849350 0.515930 0.111448
vn 0.849350 0.515930 0.111448
vn 0.014294 -0.002378 0.999895
vn 0.014294 -0.002378 0.999895
vn 0.014294 -0.002378 0.999895
vn 0.846571 0.520954 0.109199
vn 0.846571 0.520954 0.109199
vn 0.846571 0.520954 0.109199
vn -0.933534 0.358490 0.000229
vn -0.933534 0.358490 0.000229
vn -0.933534 0.358490 0.000229
vn -0.933534 0.358490 0.000229
vn 0.956816 -0.147022 0.250773
vn 0.956816 -0.147022 0.250773
vn 0.956816 -0.147022 0.250773
vn 0.956816 -0.147022 0.250773
vn 0.956816 -0.147022 0.250773
vn 0.957323 -0.147257 0.248693
vn 0.957323 -0.147257 0.248693
vn 0.957323 -0.147257 0.248693
vn 0.000041 -0.000495 1.000000
vn 0.000041 -0.000495 1.000000
vn 0.000041 -0.000495 1.000000
vn 0.000041 -0.000495 1.000000
s 1
g glass_backup:Cube_cellFBXASC046003
usemtl initialShadingGroup
f 19/1/1 4/2/2 3/4/3
f 3/4/3 4/2/2 2/3/4
s 2
f 21/5/5 17/6/6 15/9/7
f 17/6/6 9/7/8 15/9/7
f 9/7/8 18/8/9 15/9/7
s 3
f 15/16/10 14/10/11 21/15/12
f 10/11/13 11/12/14 14/10/11
f 11/12/14 23/13/15 14/10/11
f 23/13/15 20/14/16 14/10/11
f 14/10/11 20/14/16 21/15/12
s 5
f 12/18/17 22/19/18 1/17/19
f 1/17/19 22/19/18 3/4/20
s off
f 1/17/21 3/20/22 16/21/23
f 22/22/24 19/23/25 3/4/26
s 6
f 5/24/27 6/25/28 4/27/29
f 4/27/29 6/25/28 2/26/30
s 7
f 16/31/31 8/32/32 1/30/33
f 12/29/34 1/30/33 13/28/35
f 13/28/35 1/30/33 8/32/32
s off
f 8/33/36 7/34/37 13/35/38
s 8
f 6/36/39 16/37/40 2/3/41
f 2/3/41 16/37/40 3/38/42
