# This file uses centimeters as units for non-parametric coordinates.

mtllib glass_10.mtl
g default
v 5.568520 11.633740 -1.961352
v 5.695335 11.633741 1.940805
v 7.369802 6.193308 1.940806
v 7.119137 6.593608 -1.961351
v 11.080881 3.730205 -1.961351
v 10.994579 3.939047 1.940807
v 10.694947 3.789232 1.940806
v 16.096550 6.492268 1.940806
v 16.235771 6.307778 -1.961351
v 15.919528 6.149517 -1.961351
v 16.886900 11.633741 1.940805
v 17.055300 11.633740 -1.961352
v 5.695335 11.633741 1.940805
v 5.568520 11.633740 -1.961352
v 7.369802 6.193308 1.940806
v 7.119137 6.593608 -1.961351
v 11.080881 3.730205 -1.961351
v 10.994579 3.939047 1.940807
v 10.694947 3.789232 1.940806
v 16.886900 11.633741 1.940805
v 16.096550 6.492268 1.940806
v 15.919528 6.149517 -1.961351
v 16.235771 6.307778 -1.961351
v 17.055300 11.633740 -1.961352
vt 0.973610 0.942249
vt 0.089402 0.058119
vt 1.000000 0.057785
vt 1.000000 0.941597
vt 0.875000 0.654311
vt 0.875000 0.718080
vt 0.817863 0.713531
vt 0.816165 0.711775
vt 0.790210 0.684913
vt 0.820929 0.662920
vt 0.469985 0.250000
vt 0.407855 0.250000
vt 0.406920 0.000000
vt 0.470689 0.000000
vt 0.058311 0.058311
vt 0.058010 0.000000
vt 0.942299 0.000000
vt 0.941638 0.941638
vt 1.000000 0.941638
vt 0.058370 0.000000
vt 0.941690 0.000000
vt 1.000000 0.058311
vt 0.057785 0.057785
vt 1.000000 0.058310
vt 1.000000 0.941630
vt 0.941597 0.941597
vt 0.540844 0.317229
vt 0.542451 0.315566
vt 0.569842 0.287242
vt 0.625000 0.282855
vt 0.625000 0.344985
vt 0.566635 0.335689
vt 0.058010 0.058010
vt 0.058050 0.032106
vt 0.942194 0.032355
vt 0.942299 0.942299
vn 0.987485 -0.151874 0.042514
vn 0.987485 -0.151874 0.042514
vn 0.987485 -0.151874 0.042514
vn 0.987485 -0.151874 0.042514
vn 0.000000 0.000000 -1.000000
vn 0.000000 0.000000 -1.000000
vn 0.000000 0.000000 -1.000000
vn 0.000000 0.000000 -1.000000
vn 0.000000 0.000000 -1.000000
vn 0.000000 0.000000 -1.000000
vn 0.000000 1.000000 0.000000
vn 0.000000 1.000000 0.000000
vn 0.000000 1.000000 0.000000
vn 0.000000 1.000000 0.000000
vn -0.585228 -0.809588 -0.045545
vn -0.585228 -0.809588 -0.045545
vn -0.585228 -0.809588 -0.045545
vn -0.585228 -0.809588 -0.045545
vn 0.446468 -0.892940 0.057664
vn 0.446468 -0.892940 0.057664
vn 0.446468 -0.892940 0.057664
vn 0.446468 -0.892940 0.057664
vn 0.446770 -0.892757 0.058148
vn 0.446770 -0.892757 0.058148
vn 0.446770 -0.892757 0.058148
vn 0.446770 -0.892757 0.058148
vn 0.000000 0.000000 1.000000
vn 0.000000 0.000000 1.000000
vn 0.000000 0.000000 1.000000
vn 0.000000 0.000000 1.000000
vn 0.000000 0.000000 1.000000
vn 0.000000 0.000000 1.000000
vn -0.955308 -0.293968 0.031128
vn -0.955308 -0.293968 0.031128
vn -0.955308 -0.293968 0.031128
vn -0.955308 -0.293968 0.031128
s 1
g glass_backup:Cube_cell
usemtl initialShadingGroup
f 11/2/1 21/3/2 12/1/3
f 12/1/3 21/3/2 9/4/4
s 2
f 14/5/5 24/6/6 16/10/7
f 24/6/6 23/7/8 16/10/7
f 23/7/8 22/8/9 16/10/7
f 22/8/9 17/9/10 16/10/7
s 3
f 13/11/11 20/12/12 14/14/13
f 14/14/13 20/12/12 24/13/14
s 4
f 19/15/15 3/16/16 5/18/17
f 5/18/17 3/16/16 4/17/18
s 5
f 19/22/19 5/19/20 18/21/21
f 5/19/20 10/20/22 18/21/21
s 6
f 9/26/23 21/23/24 10/25/25
f 21/23/24 18/24/26 10/25/25
s 7
f 13/31/27 15/32/28 20/30/29
f 20/30/29 15/32/28 8/29/30
f 7/27/31 6/28/32 15/32/28
f 6/28/32 8/29/30 15/32/28
s 8
f 3/33/33 2/34/34 4/36/35
f 4/36/35 2/34/34 1/35/36
g default
v 5.568520 11.633740 -1.961352
v 5.695335 11.633741 1.940805
v 7.369802 6.193308 1.940806
v 7.119137 6.593608 -1.961351
v 11.080881 3.730205 -1.961351
v 10.994579 3.939047 1.940807
v 10.694947 3.789232 1.940806
v 16.096550 6.492268 1.940806
v 16.235771 6.307778 -1.961351
v 15.919528 6.149517 -1.961351
v 16.886900 11.633741 1.940805
v 17.055300 11.633740 -1.961352
v 5.695335 11.633741 1.940805
v 5.568520 11.633740 -1.961352
v 7.369802 6.193308 1.940806
v 7.119137 6.593608 -1.961351
v 11.080881 3.730205 -1.961351
v 10.994579 3.939047 1.940807
v 10.694947 3.789232 1.940806
v 16.886900 11.633741 1.940805
v 16.096550 6.492268 1.940806
v 15.919528 6.149517 -1.961351
v 16.235771 6.307778 -1.961351
v 17.055300 11.633740 -1.961352
vt 0.973610 0.942249
vt 0.089402 0.058119
vt 1.000000 0.057785
vt 1.000000 0.941597
vt 0.875000 0.654311
vt 0.875000 0.718080
vt 0.817863 0.713531
vt 0.816165 0.711775
vt 0.790210 0.684913
vt 0.820929 0.662920
vt 0.469985 0.250000
vt 0.407855 0.250000
vt 0.406920 0.000000
vt 0.470689 0.000000
vt 0.058311 0.058311
vt 0.058010 0.000000
vt 0.942299 0.000000
vt 0.941638 0.941638
vt 1.000000 0.941638
vt 0.058370 0.000000
vt 0.941690 0.000000
vt 1.000000 0.058311
vt 0.057785 0.057785
vt 1.000000 0.058310
vt 1.000000 0.941630
vt 0.941597 0.941597
vt 0.540844 0.317229
vt 0.542451 0.315566
vt 0.569842 0.287242
vt 0.625000 0.282855
vt 0.625000 0.344985
vt 0.566635 0.335689
vt 0.058010 0.058010
vt 0.058050 0.032106
vt 0.942194 0.032355
vt 0.942299 0.942299
vn 0.987485 -0.151874 0.042514
vn 0.987485 -0.151874 0.042514
vn 0.987485 -0.151874 0.042514
vn 0.987485 -0.151874 0.042514
vn 0.000000 0.000000 -1.000000
vn 0.000000 0.000000 -1.000000
vn 0.000000 0.000000 -1.000000
vn 0.000000 0.000000 -1.000000
vn 0.000000 0.000000 -1.000000
vn 0.000000 0.000000 -1.000000
vn 0.000000 1.000000 0.000000
vn 0.000000 1.000000 0.000000
vn 0.000000 1.000000 0.000000
vn 0.000000 1.000000 0.000000
vn -0.585228 -0.809588 -0.045545
vn -0.585228 -0.809588 -0.045545
vn -0.585228 -0.809588 -0.045545
vn -0.585228 -0.809588 -0.045545
vn 0.446468 -0.892940 0.057664
vn 0.446468 -0.892940 0.057664
vn 0.446468 -0.892940 0.057664
vn 0.446468 -0.892940 0.057664
vn 0.446770 -0.892757 0.058148
vn 0.446770 -0.892757 0.058148
vn 0.446770 -0.892757 0.058148
vn 0.446770 -0.892757 0.058148
vn 0.000000 0.000000 1.000000
vn 0.000000 0.000000 1.000000
vn 0.000000 0.000000 1.000000
vn 0.000000 0.000000 1.000000
vn 0.000000 0.000000 1.000000
vn 0.000000 0.000000 1.000000
vn -0.955308 -0.293968 0.031128
vn -0.955308 -0.293968 0.031128
vn -0.955308 -0.293968 0.031128
vn -0.955308 -0.293968 0.031128
s 1
g glass_backup:Cube_cell
f 35/38/37 45/39/38 36/37/39
f 36/37/39 45/39/38 33/40/40
s 2
f 38/41/41 48/42/42 40/46/43
f 48/42/42 47/43/44 40/46/43
f 47/43/44 46/44/45 40/46/43
f 46/44/45 41/45/46 40/46/43
s 3
f 37/47/47 44/48/48 38/50/49
f 38/50/49 44/48/48 48/49/50
s 4
f 43/51/51 27/52/52 29/54/53
f 29/54/53 27/52/52 28/53/54
s 5
f 43/58/55 29/55/56 42/57/57
f 29/55/56 34/56/58 42/57/57
s 6
f 33/62/59 45/59/60 34/61/61
f 45/59/60 42/60/62 34/61/61
s 7
f 37/67/63 39/68/64 44/66/65
f 44/66/65 39/68/64 32/65/66
f 31/63/67 30/64/68 39/68/64
f 30/64/68 32/65/66 39/68/64
s 8
f 27/69/69 26/70/70 28/72/71
f 28/72/71 26/70/70 25/71/72
