# This file uses centimeters as units for non-parametric coordinates.

mtllib glass_8.mtl
g default
v -6.198166 1.928516 1.940806
v -6.199118 1.927559 -1.961351
v -6.211136 1.927421 -1.961351
v -6.406123 1.926543 -1.961351
v -6.394053 1.926248 1.940806
v -6.406097 1.926192 1.940806
v -14.649670 8.756197 1.940805
v -14.575531 8.568807 1.940805
v -14.574387 8.569970 -1.961352
v -15.786556 11.633741 -1.961352
v -15.777954 11.611933 -1.961352
v -15.784739 11.633742 1.940804
v -3.787981 11.633741 -1.961352
v -3.788899 11.633742 1.940804
v -6.199118 1.927559 -1.961351
v -6.211136 1.927421 -1.961351
v -6.406123 1.926543 -1.961351
v -6.198166 1.928516 1.940806
v -6.394053 1.926248 1.940806
v -6.406097 1.926192 1.940806
v -14.575531 8.568807 1.940805
v -14.574387 8.569970 -1.961352
v -14.649670 8.756197 1.940805
v -15.784739 11.633742 1.940804
v -15.777954 11.611933 -1.961352
v -15.786556 11.633741 -1.961352
v -3.788899 11.633742 1.940804
v -3.787981 11.633741 -1.961352
vt 0.594130 0.457930
vt 0.592119 0.457518
vt 0.520857 0.412166
vt 0.520857 0.412099
vt 0.520882 0.411011
vt 0.625000 0.397636
vt 0.625000 0.464231
vt 0.057657 0.057657
vt 1.000000 0.057661
vt 1.000000 0.941800
vt 0.941950 0.941950
vt 0.941979 0.000000
vt 0.941979 0.890136
vt 0.058131 0.006746
vt 0.058131 0.000000
vt 0.058131 0.058131
vt 1.000000 0.057657
vt 1.000000 0.941950
vt 0.941979 0.941979
vt 0.875000 0.535759
vt 0.875000 0.602369
vt 0.770871 0.588983
vt 0.770870 0.588917
vt 0.770861 0.587834
vt 0.842132 0.542488
vt 0.874766 0.535806
vt 0.057661 0.057661
vt 1.000000 0.057793
vt 1.000000 0.941809
vt 0.941800 0.941800
vt 0.057556 0.016718
vt 0.941675 0.016705
vt 1.000000 0.057780
vt 1.000000 0.942181
vt 0.057793 0.057793
vt 0.057819 0.000000
vt 0.942220 0.000000
vt 0.941809 0.941809
vt 0.522631 0.000000
vt 0.589241 0.000000
vt 0.589231 0.250000
vt 0.522636 0.250000
vn 0.000000 0.000000 1.000000
vn 0.000000 0.000000 1.000000
vn 0.000000 0.000000 1.000000
vn 0.000000 0.000000 1.000000
vn 0.000000 0.000000 1.000000
vn 0.000001 0.000000 1.000000
vn 0.000000 0.000000 1.000000
vn -0.630926 -0.775843 -0.000241
vn -0.630926 -0.775843 -0.000241
vn -0.630926 -0.775843 -0.000241
vn -0.630926 -0.775843 -0.000241
vn -0.930244 -0.366941 0.000433
vn -0.930244 -0.366941 0.000433
vn -0.930244 -0.366941 0.000433
vn -0.930244 -0.366941 0.000433
vn -0.929864 -0.367904 -0.000381
vn -0.929864 -0.367904 -0.000381
vn -0.929864 -0.367904 -0.000381
vn -0.929864 -0.367904 -0.000381
vn 0.000000 0.000000 -1.000000
vn 0.000000 0.000000 -1.000000
vn 0.000000 0.000000 -1.000000
vn 0.000000 0.000000 -1.000000
vn 0.000000 0.000000 -1.000000
vn 0.000000 0.000000 -1.000000
vn 0.000000 0.000000 -1.000000
vn 0.004511 -0.999990 -0.000089
vn 0.004511 -0.999990 -0.000089
vn 0.004511 -0.999990 -0.000089
vn 0.004511 -0.999990 -0.000089
vn 0.970523 -0.241008 0.000026
vn 0.970523 -0.241008 0.000026
vn 0.970523 -0.241008 0.000026
vn 0.970523 -0.241008 0.000026
vn 0.011574 -0.999933 0.000242
vn 0.011574 -0.999933 0.000242
vn 0.011574 -0.999933 0.000242
vn 0.011574 -0.999933 0.000242
vn 0.000000 1.000000 0.000000
vn 0.000000 1.000000 0.000000
vn 0.000000 1.000000 0.000000
vn 0.000000 1.000000 0.000000
s 1
g glass_backup:Cube_cellFBXASC046005
usemtl initialShadingGroup
f 24/7/1 23/1/2 27/6/3
f 23/1/2 21/2/4 27/6/3
f 18/5/5 27/6/3 19/4/6
f 19/4/6 27/6/3 20/3/7
f 21/2/4 20/3/7 27/6/3
s 3
f 22/8/8 4/9/9 8/11/10
f 8/11/10 4/9/9 6/10/11
s 4
f 10/14/12 25/15/13 12/13/14
f 7/12/15 12/13/14 25/15/13
s 5
f 8/18/16 7/19/17 22/17/18
f 25/16/19 22/17/18 7/19/17
s 6
f 26/20/20 28/21/21 11/26/22
f 11/26/22 28/21/21 9/25/23
f 15/22/24 16/23/25 28/21/21
f 16/23/25 17/24/26 28/21/21
f 28/21/21 17/24/26 9/25/23
s 8
f 6/30/27 4/27/28 5/29/29
f 4/27/28 3/28/30 5/29/29
s 9
f 13/31/31 14/32/32 2/34/33
f 2/34/33 14/32/32 1/33/34
s 10
f 2/36/35 1/37/36 3/35/37
f 3/35/37 1/37/36 5/38/38
s 11
f 28/39/39 26/40/40 27/42/41
f 27/42/41 26/40/40 24/41/42
