# This file uses centimeters as units for non-parametric coordinates.

mtllib glass_4.mtl
g default
v -6.637882 1.773994 -1.961354
v -9.174487 0.124402 1.940803
v -14.352576 -5.488001 1.940804
v -14.014584 -6.222380 -1.961353
v -16.140457 1.775048 -1.961354
v -16.521296 0.124882 1.940803
v -16.148911 -5.759965 -1.961353
v -16.220984 -5.717454 -1.961353
v -17.912277 -4.715573 1.940804
v -19.303026 -3.894953 1.940803
v -19.081009 -4.026238 1.940803
v -19.841700 -3.576347 -1.961353
v -6.637882 1.773994 -1.961354
v -14.014584 -6.222380 -1.961353
v -16.521296 0.124882 1.940803
v -9.174487 0.124402 1.940803
v -14.352576 -5.488001 1.940804
v -16.140457 1.775048 -1.961354
v -19.303026 -3.894953 1.940803
v -16.148911 -5.759965 -1.961353
v -16.220984 -5.717454 -1.961353
v -17.912277 -4.715573 1.940804
v -19.081009 -4.026238 1.940803
v -19.841700 -3.576347 -1.961353
vt 0.769235 0.533794
vt 0.769224 0.586547
vt 0.683438 0.545596
vt 0.688399 0.533747
vt 0.688855 0.533347
vt 0.711825 0.513246
vt 0.057775 0.057775
vt 0.057595 0.000000
vt 0.941883 0.000000
vt 0.942381 0.942381
vt 1.000000 0.941822
vt 0.057745 0.000000
vt 0.941564 0.000000
vt 1.000000 0.058039
vt 0.058039 0.058039
vt 1.000000 0.057775
vt 1.000000 0.942381
vt 0.941822 0.941822
vt 0.458407 0.483763
vt 0.456999 0.482531
vt 0.449603 0.476042
vt 0.441317 0.456281
vt 0.501527 0.427534
vt 0.501532 0.468320
vt 0.057754 0.057754
vt 0.057747 0.000000
vt 0.941778 0.000000
vt 0.941893 0.941893
vt 0.057747 0.057747
vt 1.000000 0.058436
vt 1.000000 0.942255
vt 0.941778 0.941778
vt 0.057595 0.057595
vt 1.000000 0.057754
vt 1.000000 0.941893
vt 0.941883 0.941883
vn -0.000000 -0.000000 -1.000000
vn 0.000000 -0.000000 -1.000000
vn -0.000000 -0.000000 -1.000000
vn 0.000000 -0.000000 -1.000000
vn -0.000000 -0.000000 -1.000000
vn -0.000000 -0.000000 -1.000000
vn -0.209089 -0.964140 0.163450
vn -0.209089 -0.964140 0.163450
vn -0.209089 -0.964140 0.163450
vn -0.209089 -0.964140 0.163450
vn 0.000084 0.921044 0.389459
vn 0.000084 0.921044 0.389459
vn 0.000084 0.921044 0.389459
vn 0.000084 0.921044 0.389459
vn 0.721918 -0.666006 0.187805
vn 0.721918 -0.666006 0.187805
vn 0.721918 -0.666006 0.187805
vn 0.721918 -0.666006 0.187805
vn 0.000000 0.000000 1.000000
vn 0.000000 0.000000 1.000000
vn 0.000000 0.000000 1.000000
vn 0.000000 0.000000 1.000000
vn 0.000000 0.000000 1.000000
vn 0.000000 0.000000 1.000000
vn -0.509009 -0.860761 -0.000013
vn -0.509009 -0.860761 -0.000013
vn -0.509009 -0.860761 -0.000013
vn -0.509009 -0.860761 -0.000013
vn -0.812041 0.561767 0.158138
vn -0.812041 0.561767 0.158138
vn -0.812041 0.561767 0.158138
vn -0.812041 0.561767 0.158138
vn -0.508031 -0.861338 0.000955
vn -0.508031 -0.861338 0.000955
vn -0.508031 -0.861338 0.000955
vn -0.508031 -0.861338 0.000955
s 1
g glass_backup:Cube_cellFBXASC046012
usemtl initialShadingGroup
f 13/2/1 14/3/2 18/1/3
f 14/3/2 20/4/4 18/1/3
f 20/4/4 21/5/5 18/1/3
f 18/1/3 21/5/5 24/6/6
s 2
f 22/8/7 7/9/8 17/7/9
f 17/7/9 7/9/8 4/10/10
s 3
f 1/11/11 5/12/12 16/14/13
f 16/14/13 5/12/12 15/13/14
s 4
f 17/16/15 4/17/16 16/15/17
f 16/15/17 4/17/16 1/18/18
s 5
f 2/23/19 6/24/20 3/22/21
f 3/22/21 6/24/20 9/21/22
f 19/19/23 23/20/24 6/24/20
f 23/20/24 9/21/22 6/24/20
s 6
f 10/26/25 12/27/26 11/25/27
f 11/25/27 12/27/26 8/28/28
s 7
f 10/29/29 15/30/30 12/32/31
f 12/32/31 15/30/30 5/31/32
s 8
f 7/36/33 22/33/34 8/35/35
f 22/33/34 11/34/36 8/35/35
g default
v -6.637882 1.773994 -1.961354
v -9.174487 0.124402 1.940803
v -14.352576 -5.488001 1.940804
v -14.014584 -6.222380 -1.961353
v -16.140457 1.775048 -1.961354
v -16.521296 0.124882 1.940803
v -16.148911 -5.759965 -1.961353
v -16.220984 -5.717454 -1.961353
v -17.912277 -4.715573 1.940804
v -19.303026 -3.894953 1.940803
v -19.081009 -4.026238 1.940803
v -19.841700 -3.576347 -1.961353
v -6.637882 1.773994 -1.961354
v -14.014584 -6.222380 -1.961353
v -16.521296 0.124882 1.940803
v -9.174487 0.124402 1.940803
v -14.352576 -5.488001 1.940804
v -16.140457 1.775048 -1.961354
v -19.303026 -3.894953 1.940803
v -16.148911 -5.759965 -1.961353
v -16.220984 -5.717454 -1.961353
v -17.912277 -4.715573 1.940804
v -19.081009 -4.026238 1.940803
v -19.841700 -3.576347 -1.961353
vt 0.769235 0.533794
vt 0.769224 0.586547
vt 0.683438 0.545596
vt 0.688399 0.533747
vt 0.688855 0.533347
vt 0.711825 0.513246
vt 0.057775 0.057775
vt 0.057595 0.000000
vt 0.941883 0.000000
vt 0.942381 0.942381
vt 1.000000 0.941822
vt 0.057745 0.000000
vt 0.941564 0.000000
vt 1.000000 0.058039
vt 0.058039 0.058039
vt 1.000000 0.057775
vt 1.000000 0.942381
vt 0.941822 0.941822
vt 0.458407 0.483763
vt 0.456999 0.482531
vt 0.449603 0.476042
vt 0.441317 0.456281
vt 0.501527 0.427534
vt 0.501532 0.468320
vt 0.057754 0.057754
vt 0.057747 0.000000
vt 0.941778 0.000000
vt 0.941893 0.941893
vt 0.057747 0.057747
vt 1.000000 0.058436
vt 1.000000 0.942255
vt 0.941778 0.941778
vt 0.057595 0.057595
vt 1.000000 0.057754
vt 1.000000 0.941893
vt 0.941883 0.941883
vn -0.000000 -0.000000 -1.000000
vn 0.000000 -0.000000 -1.000000
vn -0.000000 -0.000000 -1.000000
vn 0.000000 -0.000000 -1.000000
vn -0.000000 -0.000000 -1.000000
vn -0.000000 -0.000000 -1.000000
vn -0.209089 -0.964140 0.163450
vn -0.209089 -0.964140 0.163450
vn -0.209089 -0.964140 0.163450
vn -0.209089 -0.964140 0.163450
vn 0.000084 0.921044 0.389459
vn 0.000084 0.921044 0.389459
vn 0.000084 0.921044 0.389459
vn 0.000084 0.921044 0.389459
vn 0.721918 -0.666006 0.187805
vn 0.721918 -0.666006 0.187805
vn 0.721918 -0.666006 0.187805
vn 0.721918 -0.666006 0.187805
vn 0.000000 0.000000 1.000000
vn 0.000000 0.000000 1.000000
vn 0.000000 0.000000 1.000000
vn 0.000000 0.000000 1.000000
vn 0.000000 0.000000 1.000000
vn 0.000000 0.000000 1.000000
vn -0.509009 -0.860761 -0.000013
vn -0.509009 -0.860761 -0.000013
vn -0.509009 -0.860761 -0.000013
vn -0.509009 -0.860761 -0.000013
vn -0.812041 0.561767 0.158138
vn -0.812041 0.561767 0.158138
vn -0.812041 0.561767 0.158138
vn -0.812041 0.561767 0.158138
vn -0.508031 -0.861338 0.000955
vn -0.508031 -0.861338 0.000955
vn -0.508031 -0.861338 0.000955
vn -0.508031 -0.861338 0.000955
s 1
g glass_backup:Cube_cellFBXASC046012
f 37/38/37 38/39/38 42/37/39
f 38/39/38 44/40/40 42/37/39
f 44/40/40 45/41/41 42/37/39
f 42/37/39 45/41/41 48/42/42
s 2
f 46/44/43 31/45/44 41/43/45
f 41/43/45 31/45/44 28/46/46
s 3
f 25/47/47 29/48/48 40/50/49
f 40/50/49 29/48/48 39/49/50
s 4
f 41/52/51 28/53/52 40/51/53
f 40/51/53 28/53/52 25/54/54
s 5
f 26/59/55 30/60/56 27/58/57
f 27/58/57 30/60/56 33/57/58
f 43/55/59 47/56/60 30/60/56
f 47/56/60 33/57/58 30/60/56
s 6
f 34/62/61 36/63/62 35/61/63
f 35/61/63 36/63/62 32/64/64
s 7
f 34/65/65 39/66/66 36/68/67
f 36/68/67 39/66/66 29/67/68
s 8
f 31/72/69 46/69/70 32/71/71
f 46/69/70 35/70/72 32/71/71
