# This file uses centimeters as units for non-parametric coordinates.

mtllib glass_6.mtl
g default
v -6.198936 1.919752 1.940802
v -6.404961 1.919233 -1.961355
v -6.458348 1.885690 -1.961355
v -6.626817 1.776020 -1.961355
v -6.393919 1.921637 1.940802
v -6.409199 1.919567 1.940802
v -9.162989 0.126903 1.940803
v -14.349362 -5.493875 1.940803
v -14.010315 -6.227876 -1.961353
v -11.500289 -11.669624 -1.961352
v -11.499557 -11.669623 1.940804
v -6.198184 1.919204 -1.961355
v -6.210113 1.919319 -1.961355
v -3.375486 -5.315905 1.940803
v -3.587026 -5.067597 -1.961353
v -3.619860 -4.688787 -1.961354
v -3.016428 -11.669624 -1.961352
v -2.824764 -11.669623 1.940804
v -2.846137 -11.422332 1.940804
v -6.458348 1.885690 -1.961355
v -6.626817 1.776020 -1.961355
v -6.404961 1.919233 -1.961355
v -6.198936 1.919752 1.940802
v -6.393919 1.921637 1.940802
v -6.409199 1.919567 1.940802
v -9.162989 0.126903 1.940803
v -14.349362 -5.493875 1.940803
v -14.010315 -6.227876 -1.961353
v -11.499557 -11.669623 1.940804
v -11.500289 -11.669624 -1.961352
v -6.198184 1.919204 -1.961355
v -6.210113 1.919319 -1.961355
v -3.375486 -5.315905 1.940803
v -3.619860 -4.688787 -1.961354
v -3.587026 -5.067597 -1.961353
v -2.846137 -11.422332 1.940804
v -3.016428 -11.669624 -1.961352
v -2.824764 -11.669623 1.940804
vt 1.000000 0.941535
vt 0.057635 0.000000
vt 0.941867 0.000000
vt 1.000000 0.057548
vt 0.434554 0.750000
vt 0.481652 0.750000
vt 0.482716 1.000000
vt 0.434558 1.000000
vt 0.769246 0.586609
vt 0.770422 0.587544
vt 0.770782 0.587841
vt 0.770783 0.588922
vt 0.770782 0.588988
vt 0.699891 0.603302
vt 0.695827 0.603484
vt 0.625000 0.606652
vt 0.625000 0.559554
vt 0.683379 0.545619
vt 0.057530 0.000000
vt 0.942040 0.000000
vt 0.974091 0.032329
vt 0.973804 0.915691
vt 0.057548 0.057548
vt 1.000000 0.057614
vt 1.000000 0.941540
vt 0.941535 0.941535
vt 0.057963 0.057963
vt 0.058002 0.000000
vt 0.942357 0.000000
vt 0.941712 0.941712
vt 0.057604 0.057604
vt 1.000000 0.057960
vt 1.000000 0.942470
vt 0.941585 0.941585
vt 0.058002 0.058002
vt 1.000000 0.058133
vt 1.000000 0.942365
vt 0.942357 0.942357
vt 0.942386 0.000000
vt 0.976779 0.034408
vt 0.976671 0.918597
vt 0.058460 0.000000
vt 0.441254 0.456263
vt 0.375000 0.440442
vt 0.375000 0.392284
vt 0.377653 0.392403
vt 0.443163 0.395341
vt 0.520788 0.411016
vt 0.520808 0.412098
vt 0.520786 0.412183
vt 0.501554 0.427471
vt 1.000000 0.941712
vt 0.057629 0.000000
vt 1.000000 0.057963
vt 1.000000 0.941585
vt 0.058003 0.000000
vt 0.942371 0.000000
vt 1.000000 0.057604
vn 0.931597 0.363493 0.000128
vn 0.931594 0.363501 0.000112
vn 0.931590 0.363511 0.000093
vn 0.931587 0.363518 0.000080
vn 0.000000 -1.000000 0.000000
vn 0.000000 -1.000000 0.000000
vn 0.000000 -1.000000 0.000000
vn 0.000000 -1.000000 0.000000
vn 0.000000 0.000000 -1.000000
vn 0.000000 0.000000 -1.000000
vn 0.000000 0.000000 -1.000000
vn 0.000000 0.000000 -1.000000
vn 0.000000 0.000000 -1.000000
vn 0.000000 0.000000 -1.000000
vn 0.000000 0.000000 -1.000000
vn 0.000000 0.000000 -1.000000
vn 0.000000 0.000000 -1.000000
vn 0.000000 0.000000 -1.000000
vn -0.908021 -0.418924 0.000038
vn -0.908021 -0.418924 0.000038
vn -0.908021 -0.418924 0.000038
vn -0.908021 -0.418924 0.000038
vn 0.995094 0.086261 -0.048455
vn 0.995094 0.086261 -0.048455
vn 0.995094 0.086261 -0.048455
vn 0.995094 0.086261 -0.048455
vn -0.010263 0.999947 -0.000587
vn -0.010263 0.999947 -0.000587
vn -0.010263 0.999947 -0.000587
vn -0.010263 0.999947 -0.000587
vn -0.721899 0.666010 -0.187863
vn -0.721899 0.666010 -0.187863
vn -0.721899 0.666010 -0.187863
vn -0.721899 0.666010 -0.187863
vn 0.009659 0.999953 -0.000139
vn 0.009659 0.999953 -0.000139
vn 0.009659 0.999953 -0.000139
vn 0.009659 0.999953 -0.000139
vn 0.995095 0.086004 -0.048877
vn 0.995095 0.086004 -0.048877
vn 0.995095 0.086004 -0.048877
vn 0.995095 0.086004 -0.048877
vn 0.000000 0.000000 1.000000
vn 0.000000 0.000000 1.000000
vn 0.000000 0.000000 1.000000
vn 0.000000 0.000000 1.000000
vn 0.000000 0.000000 1.000000
vn 0.000000 0.000000 1.000000
vn 0.000000 0.000000 1.000000
vn 0.000000 0.000000 1.000000
vn 0.000000 0.000000 1.000000
vn -0.532005 0.846741 -0.000650
vn -0.532005 0.846741 -0.000650
vn -0.532005 0.846741 -0.000650
vn -0.545566 0.838068 -0.000404
vn -0.545566 0.838068 -0.000404
vn -0.545566 0.838068 -0.000404
vn -0.545566 0.838068 -0.000404
s 1
g glass_backup:Cube_cellFBXASC046007
usemtl initialShadingGroup
f 12/2/1 23/3/2 16/1/3
f 16/1/3 23/3/2 33/4/4
s 2
f 30/5/5 37/6/6 29/8/7
f 29/8/7 37/6/6 38/7/8
s 3
f 37/16/9 30/17/10 35/15/11
f 30/17/10 28/18/12 35/15/11
f 35/15/11 28/18/12 34/14/13
f 31/13/14 34/14/13 32/12/15
f 32/12/15 34/14/13 22/11/16
f 22/11/16 34/14/13 20/10/17
f 20/10/17 34/14/13 21/9/18
f 21/9/18 34/14/13 28/18/12
s 5
f 27/19/19 9/20/20 11/22/21
f 11/22/21 9/20/20 10/21/22
s 6
f 16/26/23 33/23/24 15/25/25
f 33/23/24 36/24/26 15/25/25
s 7
f 6/27/27 24/28/28 2/30/29
f 24/28/28 13/29/30 2/30/29
s 8
f 4/31/31 9/32/32 7/34/33
f 7/34/33 9/32/32 27/33/34
s 9
f 12/37/35 13/38/36 23/36/37
f 24/35/38 23/36/37 13/38/36
s 10
f 18/40/39 17/41/40 36/39/41
f 36/39/41 17/41/40 15/42/42
s 11
f 38/45/43 19/46/44 29/44/45
f 19/46/44 14/47/46 29/44/45
f 29/44/45 14/47/46 8/43/47
f 8/43/47 14/47/46 26/51/48
f 1/48/49 5/49/50 14/47/46
f 5/49/50 25/50/51 14/47/46
f 14/47/46 25/50/51 26/51/48
s off
f 2/52/52 3/53/53 6/54/54
s 13
f 3/57/55 4/58/56 6/56/57
f 7/55/58 6/56/57 4/58/56
g default
v -6.198936 1.919752 1.940802
v -6.404961 1.919233 -1.961355
v -6.458348 1.885690 -1.961355
v -6.626817 1.776020 -1.961355
v -6.393919 1.921637 1.940802
v -6.409199 1.919567 1.940802
v -9.162989 0.126903 1.940803
v -14.349362 -5.493875 1.940803
v -14.010315 -6.227876 -1.961353
v -11.500289 -11.669624 -1.961352
v -11.499557 -11.669623 1.940804
v -6.198184 1.919204 -1.961355
v -6.210113 1.919319 -1.961355
v -3.375486 -5.315905 1.940803
v -3.587026 -5.067597 -1.961353
v -3.619860 -4.688787 -1.961354
v -3.016428 -11.669624 -1.961352
v -2.824764 -11.669623 1.940804
v -2.846137 -11.422332 1.940804
v -6.458348 1.885690 -1.961355
v -6.626817 1.776020 -1.961355
v -6.404961 1.919233 -1.961355
v -6.198936 1.919752 1.940802
v -6.393919 1.921637 1.940802
v -6.409199 1.919567 1.940802
v -9.162989 0.126903 1.940803
v -14.349362 -5.493875 1.940803
v -14.010315 -6.227876 -1.961353
v -11.499557 -11.669623 1.940804
v -11.500289 -11.669624 -1.961352
v -6.198184 1.919204 -1.961355
v -6.210113 1.919319 -1.961355
v -3.375486 -5.315905 1.940803
v -3.619860 -4.688787 -1.961354
v -3.587026 -5.067597 -1.961353
v -2.846137 -11.422332 1.940804
v -3.016428 -11.669624 -1.961352
v -2.824764 -11.669623 1.940804
vt 1.000000 0.941535
vt 0.057635 0.000000
vt 0.941867 0.000000
vt 1.000000 0.057548
vt 0.434554 0.750000
vt 0.481652 0.750000
vt 0.482716 1.000000
vt 0.434558 1.000000
vt 0.769246 0.586609
vt 0.770422 0.587544
vt 0.770782 0.587841
vt 0.770783 0.588922
vt 0.770782 0.588988
vt 0.699891 0.603302
vt 0.695827 0.603484
vt 0.625000 0.606652
vt 0.625000 0.559554
vt 0.683379 0.545619
vt 0.057530 0.000000
vt 0.942040 0.000000
vt 0.974091 0.032329
vt 0.973804 0.915691
vt 0.057548 0.057548
vt 1.000000 0.057614
vt 1.000000 0.941540
vt 0.941535 0.941535
vt 0.057963 0.057963
vt 0.058002 0.000000
vt 0.942357 0.000000
vt 0.941712 0.941712
vt 0.057604 0.057604
vt 1.000000 0.057960
vt 1.000000 0.942470
vt 0.941585 0.941585
vt 0.058002 0.058002
vt 1.000000 0.058133
vt 1.000000 0.942365
vt 0.942357 0.942357
vt 0.942386 0.000000
vt 0.976779 0.034408
vt 0.976671 0.918597
vt 0.058460 0.000000
vt 0.441254 0.456263
vt 0.375000 0.440442
vt 0.375000 0.392284
vt 0.377653 0.392403
vt 0.443163 0.395341
vt 0.520788 0.411016
vt 0.520808 0.412098
vt 0.520786 0.412183
vt 0.501554 0.427471
vt 1.000000 0.941712
vt 0.057629 0.000000
vt 1.000000 0.057963
vt 1.000000 0.941585
vt 0.058003 0.000000
vt 0.942371 0.000000
vt 1.000000 0.057604
vn 0.931597 0.363493 0.000128
vn 0.931594 0.363501 0.000112
vn 0.931590 0.363511 0.000093
vn 0.931587 0.363518 0.000080
vn 0.000000 -1.000000 0.000000
vn 0.000000 -1.000000 0.000000
vn 0.000000 -1.000000 0.000000
vn 0.000000 -1.000000 0.000000
vn 0.000000 0.000000 -1.000000
vn 0.000000 0.000000 -1.000000
vn 0.000000 0.000000 -1.000000
vn 0.000000 0.000000 -1.000000
vn 0.000000 0.000000 -1.000000
vn 0.000000 0.000000 -1.000000
vn 0.000000 0.000000 -1.000000
vn 0.000000 0.000000 -1.000000
vn 0.000000 0.000000 -1.000000
vn 0.000000 0.000000 -1.000000
vn -0.908021 -0.418924 0.000038
vn -0.908021 -0.418924 0.000038
vn -0.908021 -0.418924 0.000038
vn -0.908021 -0.418924 0.000038
vn 0.995094 0.086261 -0.048455
vn 0.995094 0.086261 -0.048455
vn 0.995094 0.086261 -0.048455
vn 0.995094 0.086261 -0.048455
vn -0.010263 0.999947 -0.000587
vn -0.010263 0.999947 -0.000587
vn -0.010263 0.999947 -0.000587
vn -0.010263 0.999947 -0.000587
vn -0.721899 0.666010 -0.187863
vn -0.721899 0.666010 -0.187863
vn -0.721899 0.666010 -0.187863
vn -0.721899 0.666010 -0.187863
vn 0.009659 0.999953 -0.000139
vn 0.009659 0.999953 -0.000139
vn 0.009659 0.999953 -0.000139
vn 0.009659 0.999953 -0.000139
vn 0.995095 0.086004 -0.048877
vn 0.995095 0.086004 -0.048877
vn 0.995095 0.086004 -0.048877
vn 0.995095 0.086004 -0.048877
vn 0.000000 0.000000 1.000000
vn 0.000000 0.000000 1.000000
vn 0.000000 0.000000 1.000000
vn 0.000000 0.000000 1.000000
vn 0.000000 0.000000 1.000000
vn 0.000000 0.000000 1.000000
vn 0.000000 0.000000 1.000000
vn 0.000000 0.000000 1.000000
vn 0.000000 0.000000 1.000000
vn -0.532005 0.846741 -0.000650
vn -0.532005 0.846741 -0.000650
vn -0.532005 0.846741 -0.000650
vn -0.545566 0.838068 -0.000404
vn -0.545566 0.838068 -0.000404
vn -0.545566 0.838068 -0.000404
vn -0.545566 0.838068 -0.000404
s 1
g glass_backup:Cube_cellFBXASC046007
f 50/60/59 61/61/60 54/59/61
f 54/59/61 61/61/60 71/62/62
s 2
f 68/63/63 75/64/64 67/66/65
f 67/66/65 75/64/64 76/65/66
s 3
f 75/74/67 68/75/68 73/73/69
f 68/75/68 66/76/70 73/73/69
f 73/73/69 66/76/70 72/72/71
f 69/71/72 72/72/71 70/70/73
f 70/70/73 72/72/71 60/69/74
f 60/69/74 72/72/71 58/68/75
f 58/68/75 72/72/71 59/67/76
f 59/67/76 72/72/71 66/76/70
s 5
f 65/77/77 47/78/78 49/80/79
f 49/80/79 47/78/78 48/79/80
s 6
f 54/84/81 71/81/82 53/83/83
f 71/81/82 74/82/84 53/83/83
s 7
f 44/85/85 62/86/86 40/88/87
f 62/86/86 51/87/88 40/88/87
s 8
f 42/89/89 47/90/90 45/92/91
f 45/92/91 47/90/90 65/91/92
s 9
f 50/95/93 51/96/94 61/94/95
f 62/93/96 61/94/95 51/96/94
s 10
f 56/98/97 55/99/98 74/97/99
f 74/97/99 55/99/98 53/100/100
s 11
f 76/103/101 57/104/102 67/102/103
f 57/104/102 52/105/104 67/102/103
f 67/102/103 52/105/104 46/101/105
f 46/101/105 52/105/104 64/109/106
f 39/106/107 43/107/108 52/105/104
f 43/107/108 63/108/109 52/105/104
f 52/105/104 63/108/109 64/109/106
s off
f 40/110/110 41/111/111 44/112/112
s 13
f 41/115/113 42/116/114 44/114/115
f 45/113/116 44/114/115 42/116/114
