# This file uses centimeters as units for non-parametric coordinates.

mtllib glass_12.mtl
g default
v 11.898814 -3.912825 -0.007348
v 19.348337 2.257529 1.605852
v 11.745031 -3.665050 -0.009619
v 10.794593 2.927264 1.940803
v 11.084739 3.722598 -1.961354
v 10.992482 3.932871 1.940803
v 10.695841 3.784332 1.940804
v 11.511954 -3.285156 1.940804
v 16.097979 6.484971 1.940802
v 16.237253 6.302356 -1.961354
v 15.924934 6.146238 -1.961354
v 11.921296 -3.537348 -1.961353
v 11.881047 -3.885835 1.940804
v 12.158127 -4.101987 1.940805
v 11.928395 -3.935919 1.940804
v 11.898745 -3.914350 1.940804
v 12.337027 -4.214253 -1.961353
v 12.384668 -4.264646 -1.961353
v 12.354893 -4.242989 -1.961353
v 17.507372 4.651960 1.940803
v 19.106024 2.572344 -1.961354
v 19.370632 2.225899 1.940803
v 19.157331 -1.479440 1.940804
v 18.685932 -4.710622 -1.961353
v 18.989895 -4.383287 1.940805
v 16.413261 -7.175171 1.940805
v 16.411579 -7.175492 -1.961352
v 16.148317 -6.985357 -1.961352
v 10.992482 3.932871 1.940803
v 10.695841 3.784332 1.940804
v 10.794593 2.927264 1.940803
v 11.511954 -3.285156 1.940804
v 15.924934 6.146238 -1.961354
v 16.237253 6.302356 -1.961354
v 11.084739 3.722598 -1.961354
v 16.097979 6.484971 1.940802
v 11.881047 -3.885835 1.940804
v 11.921296 -3.537348 -1.961353
v 16.413261 -7.175171 1.940805
v 12.158127 -4.101987 1.940805
v 11.928395 -3.935919 1.940804
v 11.898745 -3.914350 1.940804
v 12.337027 -4.214253 -1.961353
v 16.148317 -6.985357 -1.961352
v 12.384668 -4.264646 -1.961353
v 12.354893 -4.242989 -1.961353
v 17.507372 4.651960 1.940803
v 19.106024 2.572344 -1.961354
v 19.370632 2.225899 1.940803
v 19.157331 -1.479440 1.940804
v 18.989895 -4.383287 1.940805
v 18.685932 -4.710622 -1.961353
v 16.411579 -7.175492 -1.961352
vt 0.057987 0.057987
vt 0.116146 0.000000
vt 1.000000 0.000000
vt 1.000000 0.884469
vt 0.942266 0.942266
vt 0.524072 0.269066
vt 0.550099 0.279410
vt 0.569764 0.287234
vt 0.542385 0.315578
vt 0.540791 0.317224
vt 0.531596 0.316676
vt 0.464949 0.312694
vt 0.458505 0.310645
vt 0.458199 0.310546
vt 0.457968 0.310382
vt 0.456186 0.309106
vt 0.423217 0.285484
vt 0.453168 0.271180
vt 0.484321 0.270250
vt 1.000000 0.058303
vt 1.000000 0.941528
vt 0.057753 0.000000
vt 0.941704 0.000000
vt 0.435430 0.435430
vt 0.941528 0.941528
vt 0.058303 0.058303
vt 1.000000 0.067377
vt 1.000000 1.000000
vt 0.000000 0.000000
vt 0.883437 0.000000
vt 0.884469 0.884469
vt 0.884911 0.000000
vt 0.883437 0.883437
vt 0.000000 0.000000
vt 0.884318 0.000000
vt 1.000000 0.057943
vt 1.000000 0.942498
vt 0.884792 0.884792
vt 0.000000 0.000000
vt 0.564788 0.000000
vt 0.566286 0.566286
vt 0.884792 0.000000
vt 1.000000 0.115089
vt 1.000000 1.000000
vt 1.000000 0.942361
vt 0.057987 0.000000
vt 0.942266 0.000000
vt 1.000000 0.057755
vt 0.057479 0.057479
vt 0.057502 0.000000
vt 0.942057 0.000000
vt 0.941687 0.941687
vt 0.675253 0.713045
vt 0.704441 0.692151
vt 0.704673 0.691986
vt 0.704982 0.691887
vt 0.712244 0.689579
vt 0.790129 0.684935
vt 0.816130 0.711805
vt 0.817805 0.713539
vt 0.777789 0.729465
vt 0.699657 0.727133
vt 0.673213 0.714507
vt 0.067377 0.067377
vt 1.000000 0.057596
vt 1.000000 0.941532
vt 1.000000 0.435212
vt 0.057596 0.057596
vt 0.057639 0.000000
vt 0.942245 0.000000
vt 0.941532 0.941532
vt 1.000000 0.942247
vt 0.057479 0.000000
vt 0.941687 0.000000
vt 1.000000 0.058296
vt 1.000000 0.883854
vt 0.115801 0.000000
vt 0.115801 0.115801
vt 0.115682 0.000000
vt 1.000000 0.000000
vt 1.000000 0.566286
vt 0.435430 0.000000
vt 1.000000 0.000000
vn -0.988768 -0.113928 -0.096740
vn -0.988767 -0.113934 -0.096742
vn -0.988767 -0.113933 -0.096743
vn -0.988767 -0.113932 -0.096747
vn -0.988767 -0.113929 -0.096752
vn 0.000000 0.000000 1.000000
vn 0.000000 0.000000 1.000000
vn 0.000000 0.000000 1.000000
vn 0.000000 0.000000 1.000000
vn 0.000000 0.000000 1.000000
vn 0.000000 0.000000 1.000000
vn 0.000000 0.000000 1.000000
vn 0.000000 0.000000 1.000000
vn 0.000000 0.000000 1.000000
vn 0.000000 0.000000 1.000000
vn 0.000000 0.000000 1.000000
vn 0.000000 0.000000 1.000000
vn 0.000000 0.000000 1.000000
vn 0.000000 0.000000 1.000000
vn 0.734901 -0.678174 -0.000309
vn 0.734901 -0.678174 -0.000309
vn 0.734901 -0.678174 -0.000309
vn 0.734901 -0.678174 -0.000309
vn 0.995698 -0.057423 -0.072725
vn 0.995698 -0.057423 -0.072725
vn 0.995698 -0.057423 -0.072725
vn 0.995698 -0.057423 -0.072725
vn 0.995698 -0.057423 -0.072725
vn -0.988818 -0.114181 -0.095924
vn -0.988818 -0.114181 -0.095924
vn -0.988818 -0.114181 -0.095924
vn -0.852010 -0.523525 0.000156
vn -0.852010 -0.523525 0.000156
vn -0.852010 -0.523525 0.000156
vn -0.588231 -0.808693 -0.000654
vn -0.588231 -0.808693 -0.000654
vn -0.588231 -0.808693 -0.000654
vn -0.588231 -0.808693 -0.000654
vn -0.588231 -0.808693 -0.000654
vn 0.793080 0.609100 0.004734
vn 0.793080 0.609100 0.004734
vn 0.793080 0.609100 0.004734
vn -0.849652 -0.527344 -0.000441
vn -0.849652 -0.527344 -0.000441
vn -0.849652 -0.527344 -0.000441
vn -0.849652 -0.527344 -0.000441
vn -0.446966 0.892625 -0.058668
vn -0.446966 0.892625 -0.058668
vn -0.446966 0.892625 -0.058668
vn -0.446966 0.892625 -0.058668
vn -0.585847 -0.810422 -0.000229
vn -0.585847 -0.810422 -0.000229
vn -0.585847 -0.810422 -0.000229
vn -0.585847 -0.810422 -0.000229
vn 0.000000 0.000000 -1.000000
vn 0.000000 0.000000 -1.000000
vn 0.000000 0.000000 -1.000000
vn 0.000000 0.000000 -1.000000
vn 0.000000 0.000000 -1.000000
vn 0.000000 0.000000 -1.000000
vn 0.000000 0.000000 -1.000000
vn 0.000000 0.000000 -1.000000
vn 0.000000 0.000000 -1.000000
vn 0.000000 0.000000 -1.000000
vn 0.000000 0.000000 -1.000000
vn 0.792718 0.609589 -0.000148
vn 0.792718 0.609589 -0.000148
vn 0.792718 0.609589 -0.000148
vn 0.792718 0.609589 -0.000148
vn 0.792718 0.609589 -0.000148
vn -0.446377 0.892981 -0.057721
vn -0.446377 0.892981 -0.057721
vn -0.446377 0.892981 -0.057721
vn -0.446377 0.892981 -0.057721
vn -0.585494 -0.810676 0.000319
vn -0.585494 -0.810676 0.000319
vn -0.585494 -0.810676 0.000319
vn -0.585494 -0.810676 0.000319
vn -0.846902 -0.520137 -0.110518
vn -0.846902 -0.520137 -0.110518
vn -0.846902 -0.520137 -0.110518
vn -0.844209 -0.524949 -0.108349
vn -0.844209 -0.524949 -0.108349
vn -0.844209 -0.524949 -0.108349
vn -0.844209 -0.524949 -0.108349
vn 0.995779 -0.057323 -0.071683
vn 0.995779 -0.057323 -0.071683
vn 0.995779 -0.057323 -0.071683
s 1
g glass_backup:Cube_cellFBXASC046016
usemtl initialShadingGroup
f 7/5/1 35/1/2 31/4/3
f 35/1/2 38/2/4 31/4/3
f 38/2/4 3/3/5 31/4/3
s 2
f 39/17/6 51/18/7 40/16/8
f 51/18/7 50/19/9 40/16/8
f 36/8/10 29/9/11 47/7/12
f 30/10/13 4/11/14 29/9/11
f 29/9/11 4/11/14 47/7/12
f 4/11/14 32/12/15 47/7/12
f 47/7/12 32/12/15 22/6/16
f 32/12/15 37/13/17 22/6/16
f 37/13/17 16/14/18 22/6/16
f 16/14/18 41/15/19 22/6/16
f 41/15/19 40/16/8 22/6/16
f 22/6/16 40/16/8 50/19/9
s 4
f 25/21/20 26/22/21 52/20/22
f 52/20/22 26/22/21 53/23/23
s 5
f 52/26/24 48/27/25 25/25/26
f 25/25/26 48/27/25 23/24/27
f 23/24/27 48/27/25 2/28/28
s off
f 3/29/29 8/30/30 31/31/31
f 3/29/32 13/32/33 8/33/34
s 6
f 45/36/35 15/37/36 46/35/37
f 42/38/38 1/34/39 15/37/36
f 1/34/39 46/35/37 15/37/36
s off
f 2/39/40 20/40/41 49/41/42
s 7
f 42/42/43 13/43/44 1/34/45
f 1/34/45 13/43/44 3/44/46
s 8
f 7/47/47 6/48/48 35/46/49
f 11/45/50 35/46/49 6/48/48
s 9
f 15/50/51 45/51/52 14/49/53
f 14/49/53 45/51/52 44/52/54
s 10
f 27/63/55 28/53/56 24/62/57
f 28/53/56 18/54/58 24/62/57
f 24/62/57 18/54/58 21/61/59
f 18/54/58 19/55/60 21/61/59
f 19/55/60 43/56/61 21/61/59
f 43/56/61 12/57/62 21/61/59
f 12/57/62 5/58/63 21/61/59
f 34/60/64 21/61/59 33/59/65
f 5/58/63 33/59/65 21/61/59
s 11
f 9/66/66 20/67/67 10/65/68
f 10/65/68 20/67/67 48/64/69
f 48/64/69 20/67/67 2/28/70
s 12
f 10/68/71 11/69/72 9/71/73
f 11/69/72 6/70/74 9/71/73
s 13
f 53/75/75 26/72/76 44/74/77
f 26/72/76 14/73/78 44/74/77
s off
f 38/76/79 17/77/80 3/3/81
s 14
f 46/79/82 1/80/83 17/78/84
f 17/78/84 1/80/83 3/44/85
s off
f 49/81/86 23/82/87 2/83/88
g default
v 11.898814 -3.912825 -0.007348
v 19.348337 2.257529 1.605852
v 11.745031 -3.665050 -0.009619
v 10.794593 2.927264 1.940803
v 11.084739 3.722598 -1.961354
v 10.992482 3.932871 1.940803
v 10.695841 3.784332 1.940804
v 11.511954 -3.285156 1.940804
v 16.097979 6.484971 1.940802
v 16.237253 6.302356 -1.961354
v 15.924934 6.146238 -1.961354
v 11.921296 -3.537348 -1.961353
v 11.881047 -3.885835 1.940804
v 12.158127 -4.101987 1.940805
v 11.928395 -3.935919 1.940804
v 11.898745 -3.914350 1.940804
v 12.337027 -4.214253 -1.961353
v 12.384668 -4.264646 -1.961353
v 12.354893 -4.242989 -1.961353
v 17.507372 4.651960 1.940803
v 19.106024 2.572344 -1.961354
v 19.370632 2.225899 1.940803
v 19.157331 -1.479440 1.940804
v 18.685932 -4.710622 -1.961353
v 18.989895 -4.383287 1.940805
v 16.413261 -7.175171 1.940805
v 16.411579 -7.175492 -1.961352
v 16.148317 -6.985357 -1.961352
v 10.992482 3.932871 1.940803
v 10.695841 3.784332 1.940804
v 10.794593 2.927264 1.940803
v 11.511954 -3.285156 1.940804
v 15.924934 6.146238 -1.961354
v 16.237253 6.302356 -1.961354
v 11.084739 3.722598 -1.961354
v 16.097979 6.484971 1.940802
v 11.881047 -3.885835 1.940804
v 11.921296 -3.537348 -1.961353
v 16.413261 -7.175171 1.940805
v 12.158127 -4.101987 1.940805
v 11.928395 -3.935919 1.940804
v 11.898745 -3.914350 1.940804
v 12.337027 -4.214253 -1.961353
v 16.148317 -6.985357 -1.961352
v 12.384668 -4.264646 -1.961353
v 12.354893 -4.242989 -1.961353
v 17.507372 4.651960 1.940803
v 19.106024 2.572344 -1.961354
v 19.370632 2.225899 1.940803
v 19.157331 -1.479440 1.940804
v 18.989895 -4.383287 1.940805
v 18.685932 -4.710622 -1.961353
v 16.411579 -7.175492 -1.961352
vt 0.057987 0.057987
vt 0.116146 0.000000
vt 1.000000 0.000000
vt 1.000000 0.884469
vt 0.942266 0.942266
vt 0.524072 0.269066
vt 0.550099 0.279410
vt 0.569764 0.287234
vt 0.542385 0.315578
vt 0.540791 0.317224
vt 0.531596 0.316676
vt 0.464949 0.312694
vt 0.458505 0.310645
vt 0.458199 0.310546
vt 0.457968 0.310382
vt 0.456186 0.309106
vt 0.423217 0.285484
vt 0.453168 0.271180
vt 0.484321 0.270250
vt 1.000000 0.058303
vt 1.000000 0.941528
vt 0.057753 0.000000
vt 0.941704 0.000000
vt 0.435430 0.435430
vt 0.941528 0.941528
vt 0.058303 0.058303
vt 1.000000 0.067377
vt 1.000000 1.000000
vt 0.000000 0.000000
vt 0.883437 0.000000
vt 0.884469 0.884469
vt 0.884911 0.000000
vt 0.883437 0.883437
vt 0.000000 0.000000
vt 0.884318 0.000000
vt 1.000000 0.057943
vt 1.000000 0.942498
vt 0.884792 0.884792
vt 0.000000 0.000000
vt 0.564788 0.000000
vt 0.566286 0.566286
vt 0.884792 0.000000
vt 1.000000 0.115089
vt 1.000000 1.000000
vt 1.000000 0.942361
vt 0.057987 0.000000
vt 0.942266 0.000000
vt 1.000000 0.057755
vt 0.057479 0.057479
vt 0.057502 0.000000
vt 0.942057 0.000000
vt 0.941687 0.941687
vt 0.675253 0.713045
vt 0.704441 0.692151
vt 0.704673 0.691986
vt 0.704982 0.691887
vt 0.712244 0.689579
vt 0.790129 0.684935
vt 0.816130 0.711805
vt 0.817805 0.713539
vt 0.777789 0.729465
vt 0.699657 0.727133
vt 0.673213 0.714507
vt 0.067377 0.067377
vt 1.000000 0.057596
vt 1.000000 0.941532
vt 1.000000 0.435212
vt 0.057596 0.057596
vt 0.057639 0.000000
vt 0.942245 0.000000
vt 0.941532 0.941532
vt 1.000000 0.942247
vt 0.057479 0.000000
vt 0.941687 0.000000
vt 1.000000 0.058296
vt 1.000000 0.883854
vt 0.115801 0.000000
vt 0.115801 0.115801
vt 0.115682 0.000000
vt 1.000000 0.000000
vt 1.000000 0.566286
vt 0.435430 0.000000
vt 1.000000 0.000000
vn -0.988768 -0.113928 -0.096740
vn -0.988767 -0.113934 -0.096742
vn -0.988767 -0.113933 -0.096743
vn -0.988767 -0.113932 -0.096747
vn -0.988767 -0.113929 -0.096752
vn 0.000000 0.000000 1.000000
vn 0.000000 0.000000 1.000000
vn 0.000000 0.000000 1.000000
vn 0.000000 0.000000 1.000000
vn 0.000000 0.000000 1.000000
vn 0.000000 0.000000 1.000000
vn 0.000000 0.000000 1.000000
vn 0.000000 0.000000 1.000000
vn 0.000000 0.000000 1.000000
vn 0.000000 0.000000 1.000000
vn 0.000000 0.000000 1.000000
vn 0.000000 0.000000 1.000000
vn 0.000000 0.000000 1.000000
vn 0.000000 0.000000 1.000000
vn 0.734901 -0.678174 -0.000309
vn 0.734901 -0.678174 -0.000309
vn 0.734901 -0.678174 -0.000309
vn 0.734901 -0.678174 -0.000309
vn 0.995698 -0.057423 -0.072725
vn 0.995698 -0.057423 -0.072725
vn 0.995698 -0.057423 -0.072725
vn 0.995698 -0.057423 -0.072725
vn 0.995698 -0.057423 -0.072725
vn -0.988818 -0.114181 -0.095924
vn -0.988818 -0.114181 -0.095924
vn -0.988818 -0.114181 -0.095924
vn -0.852010 -0.523525 0.000156
vn -0.852010 -0.523525 0.000156
vn -0.852010 -0.523525 0.000156
vn -0.588231 -0.808693 -0.000654
vn -0.588231 -0.808693 -0.000654
vn -0.588231 -0.808693 -0.000654
vn -0.588231 -0.808693 -0.000654
vn -0.588231 -0.808693 -0.000654
vn 0.793080 0.609100 0.004734
vn 0.793080 0.609100 0.004734
vn 0.793080 0.609100 0.004734
vn -0.849652 -0.527344 -0.000441
vn -0.849652 -0.527344 -0.000441
vn -0.849652 -0.527344 -0.000441
vn -0.849652 -0.527344 -0.000441
vn -0.446966 0.892625 -0.058668
vn -0.446966 0.892625 -0.058668
vn -0.446966 0.892625 -0.058668
vn -0.446966 0.892625 -0.058668
vn -0.585847 -0.810422 -0.000229
vn -0.585847 -0.810422 -0.000229
vn -0.585847 -0.810422 -0.000229
vn -0.585847 -0.810422 -0.000229
vn 0.000000 0.000000 -1.000000
vn 0.000000 0.000000 -1.000000
vn 0.000000 0.000000 -1.000000
vn 0.000000 0.000000 -1.000000
vn 0.000000 0.000000 -1.000000
vn 0.000000 0.000000 -1.000000
vn 0.000000 0.000000 -1.000000
vn 0.000000 0.000000 -1.000000
vn 0.000000 0.000000 -1.000000
vn 0.000000 0.000000 -1.000000
vn 0.000000 0.000000 -1.000000
vn 0.792718 0.609589 -0.000148
vn 0.792718 0.609589 -0.000148
vn 0.792718 0.609589 -0.000148
vn 0.792718 0.609589 -0.000148
vn 0.792718 0.609589 -0.000148
vn -0.446377 0.892981 -0.057721
vn -0.446377 0.892981 -0.057721
vn -0.446377 0.892981 -0.057721
vn -0.446377 0.892981 -0.057721
vn -0.585494 -0.810676 0.000319
vn -0.585494 -0.810676 0.000319
vn -0.585494 -0.810676 0.000319
vn -0.585494 -0.810676 0.000319
vn -0.846902 -0.520137 -0.110518
vn -0.846902 -0.520137 -0.110518
vn -0.846902 -0.520137 -0.110518
vn -0.844209 -0.524949 -0.108349
vn -0.844209 -0.524949 -0.108349
vn -0.844209 -0.524949 -0.108349
vn -0.844209 -0.524949 -0.108349
vn 0.995779 -0.057323 -0.071683
vn 0.995779 -0.057323 -0.071683
vn 0.995779 -0.057323 -0.071683
s 1
g glass_backup:Cube_cellFBXASC046016
f 60/88/89 88/84/90 84/87/91
f 88/84/90 91/85/92 84/87/91
f 91/85/92 56/86/93 84/87/91
s 2
f 92/100/94 104/101/95 93/99/96
f 104/101/95 103/102/97 93/99/96
f 89/91/98 82/92/99 100/90/100
f 83/93/101 57/94/102 82/92/99
f 82/92/99 57/94/102 100/90/100
f 57/94/102 85/95/103 100/90/100
f 100/90/100 85/95/103 75/89/104
f 85/95/103 90/96/105 75/89/104
f 90/96/105 69/97/106 75/89/104
f 69/97/106 94/98/107 75/89/104
f 94/98/107 93/99/96 75/89/104
f 75/89/104 93/99/96 103/102/97
s 4
f 78/104/108 79/105/109 105/103/110
f 105/103/110 79/105/109 106/106/111
s 5
f 105/109/112 101/110/113 78/108/114
f 78/108/114 101/110/113 76/107/115
f 76/107/115 101/110/113 55/111/116
s off
f 56/112/117 61/113/118 84/114/119
f 56/112/120 66/115/121 61/116/122
s 6
f 98/119/123 68/120/124 99/118/125
f 95/121/126 54/117/127 68/120/124
f 54/117/127 99/118/125 68/120/124
s off
f 55/122/128 73/123/129 102/124/130
s 7
f 95/125/131 66/126/132 54/117/133
f 54/117/133 66/126/132 56/127/134
s 8
f 60/130/135 59/131/136 88/129/137
f 64/128/138 88/129/137 59/131/136
s 9
f 68/133/139 98/134/140 67/132/141
f 67/132/141 98/134/140 97/135/142
s 10
f 80/146/143 81/136/144 77/145/145
f 81/136/144 71/137/146 77/145/145
f 77/145/145 71/137/146 74/144/147
f 71/137/146 72/138/148 74/144/147
f 72/138/148 96/139/149 74/144/147
f 96/139/149 65/140/150 74/144/147
f 65/140/150 58/141/151 74/144/147
f 87/143/152 74/144/147 86/142/153
f 58/141/151 86/142/153 74/144/147
s 11
f 62/149/154 73/150/155 63/148/156
f 63/148/156 73/150/155 101/147/157
f 101/147/157 73/150/155 55/111/158
s 12
f 63/151/159 64/152/160 62/154/161
f 64/152/160 59/153/162 62/154/161
s 13
f 106/158/163 79/155/164 97/157/165
f 79/155/164 67/156/166 97/157/165
s off
f 91/159/167 70/160/168 56/86/169
s 14
f 99/162/170 54/163/171 70/161/172
f 70/161/172 54/163/171 56/127/173
s off
f 102/164/174 76/165/175 55/166/176
