# This file uses centimeters as units for non-parametric coordinates.

mtllib glass_11.mtl
g default
v 6.395384 -7.531371 -0.011393
v 11.740835 -3.664562 -0.010898
v 7.368966 6.185291 1.940803
v 7.119056 6.586279 -1.961354
v 5.324318 1.755666 1.940803
v 5.236921 2.509472 -1.961354
v 6.336871 -7.023441 1.940805
v 6.394967 -7.530665 -1.961352
v 11.126673 3.319937 -1.961354
v 11.080067 3.723578 -1.961354
v 10.691696 3.782729 1.940803
v 11.455041 -2.828372 1.940804
v 11.507714 -3.286197 1.940804
v 10.882158 -3.738699 1.940804
v 11.290864 -3.991491 -1.961353
v 11.915853 -3.539384 -1.961353
v 5.324318 1.755666 1.940803
v 7.368966 6.185291 1.940803
v 7.119056 6.586279 -1.961354
v 5.236921 2.509472 -1.961354
v 6.394967 -7.530665 -1.961352
v 6.336871 -7.023441 1.940805
v 11.080067 3.723578 -1.961354
v 11.126673 3.319937 -1.961354
v 10.691696 3.782729 1.940803
v 11.455041 -2.828372 1.940804
v 11.507714 -3.286197 1.940804
v 10.882158 -3.738699 1.940804
v 11.290864 -3.991491 -1.961353
v 11.915853 -3.539384 -1.961353
vt 0.707371 0.686079
vt 0.669403 0.658899
vt 0.777114 0.652470
vt 0.820851 0.662919
vt 0.790139 0.684909
vt 0.785809 0.685167
vt 0.712222 0.689549
vt 0.058528 0.000000
vt 0.941979 0.000000
vt 1.000000 0.115339
vt 1.000000 1.000000
vt 0.116798 0.116798
vt 0.460083 0.316190
vt 0.464938 0.312717
vt 0.469849 0.313010
vt 0.540774 0.317247
vt 0.566549 0.335694
vt 0.519027 0.347044
vt 0.424845 0.341423
vt 0.941392 0.000000
vt 0.117051 0.000000
vt 1.000000 0.000000
vt 1.000000 0.883107
vt 0.057477 0.000000
vt 0.058089 0.058089
vt 1.000000 0.058145
vt 1.000000 0.942495
vt 0.941637 0.941637
vt 0.000000 0.000000
vt 1.000000 0.000000
vt 1.000000 0.883081
vt 0.883107 0.883107
vt 0.000000 0.000000
vt 1.000000 0.882949
vt 0.882975 0.882975
vt 0.884661 0.000000
vt 0.883081 0.883081
vt 1.000000 0.882975
vt 0.116798 0.000000
vt 0.058528 0.058528
vt 0.058089 0.000000
vt 0.941637 0.000000
vt 0.941979 0.941979
vt 0.057477 0.057477
vt 0.057505 0.000000
vt 0.941855 0.000000
vt 0.941392 0.941392
vn -0.000000 -0.000000 -1.000000
vn -0.000000 -0.000000 -1.000000
vn -0.000000 -0.000000 -1.000000
vn 0.000000 0.000000 -1.000000
vn 0.000000 0.000000 -1.000000
vn 0.000000 -0.000000 -1.000000
vn 0.000000 -0.000000 -1.000000
vn -0.993413 -0.114587 0.000110
vn -0.993413 -0.114587 0.000110
vn -0.993413 -0.114587 0.000110
vn -0.993413 -0.114587 0.000110
vn -0.993413 -0.114587 0.000110
vn 0.000000 0.000000 1.000000
vn 0.000000 0.000000 1.000000
vn 0.000000 0.000000 1.000000
vn 0.000000 0.000000 1.000000
vn 0.000000 0.000000 1.000000
vn 0.000000 0.000000 1.000000
vn 0.000000 0.000000 1.000000
vn 0.988853 0.113773 0.096046
vn 0.988853 0.113773 0.096046
vn 0.988853 0.113773 0.096046
vn 0.988853 0.113773 0.096046
vn 0.988853 0.113773 0.096046
vn 0.585224 0.809574 0.045843
vn 0.585224 0.809574 0.045843
vn 0.585224 0.809574 0.045843
vn 0.585224 0.809574 0.045843
vn 0.586108 -0.810232 0.000593
vn 0.586108 -0.810232 0.000593
vn 0.586108 -0.810232 0.000593
vn 0.586108 -0.810232 0.000593
vn 0.571544 -0.790127 0.221445
vn 0.571544 -0.790127 0.221445
vn 0.571544 -0.790127 0.221445
vn 0.571544 -0.790127 0.221445
vn 0.585844 -0.810424 -0.000418
vn 0.585844 -0.810424 -0.000418
vn 0.585844 -0.810424 -0.000418
vn 0.571020 -0.790153 0.222700
vn 0.571020 -0.790153 0.222700
vn 0.571020 -0.790153 0.222700
vn -0.903310 0.416991 0.100743
vn -0.903310 0.416991 0.100743
vn -0.903310 0.416991 0.100743
vn -0.903310 0.416991 0.100743
vn 0.988747 0.114165 0.096677
vn 0.988747 0.114165 0.096677
vn 0.988747 0.114165 0.096677
vn 0.988747 0.114165 0.096677
s 1
g glass_backup:Cube_cellFBXASC046014
usemtl initialShadingGroup
f 21/2/1 20/3/2 29/1/3
f 19/4/4 23/5/5 20/3/2
f 23/5/5 24/6/6 20/3/2
f 29/1/3 20/3/2 16/7/7
f 20/3/2 24/6/6 16/7/7
s 3
f 6/9/8 8/10/9 5/8/10
f 8/10/9 1/11/11 5/8/10
f 5/8/10 1/11/11 22/12/12
s 4
f 7/19/13 14/13/14 17/18/15
f 18/17/16 17/18/15 25/16/17
f 14/13/14 27/14/18 17/18/15
f 27/14/18 26/15/19 17/18/15
f 26/15/19 25/16/17 17/18/15
s 6
f 30/23/20 9/24/21 2/22/22
f 13/21/23 2/22/22 12/20/24
f 12/20/24 2/22/22 9/24/21
s 7
f 11/26/25 10/27/26 3/25/27
f 3/25/27 10/27/26 4/28/28
s 8
f 30/32/29 2/29/30 15/31/31
f 2/29/30 1/30/32 15/31/31
s 9
f 13/34/33 28/35/34 2/22/35
f 1/33/36 2/22/35 28/35/34
s off
f 1/33/37 8/36/38 15/37/39
f 28/38/40 22/39/41 1/30/42
s 10
f 5/40/43 3/41/44 6/43/45
f 6/43/45 3/41/44 4/42/46
s 11
f 10/45/47 11/46/48 9/44/49
f 9/44/49 11/46/48 12/47/50
g default
v 6.395384 -7.531371 -0.011393
v 11.740835 -3.664562 -0.010898
v 7.368966 6.185291 1.940803
v 7.119056 6.586279 -1.961354
v 5.324318 1.755666 1.940803
v 5.236921 2.509472 -1.961354
v 6.336871 -7.023441 1.940805
v 6.394967 -7.530665 -1.961352
v 11.126673 3.319937 -1.961354
v 11.080067 3.723578 -1.961354
v 10.691696 3.782729 1.940803
v 11.455041 -2.828372 1.940804
v 11.507714 -3.286197 1.940804
v 10.882158 -3.738699 1.940804
v 11.290864 -3.991491 -1.961353
v 11.915853 -3.539384 -1.961353
v 5.324318 1.755666 1.940803
v 7.368966 6.185291 1.940803
v 7.119056 6.586279 -1.961354
v 5.236921 2.509472 -1.961354
v 6.394967 -7.530665 -1.961352
v 6.336871 -7.023441 1.940805
v 11.080067 3.723578 -1.961354
v 11.126673 3.319937 -1.961354
v 10.691696 3.782729 1.940803
v 11.455041 -2.828372 1.940804
v 11.507714 -3.286197 1.940804
v 10.882158 -3.738699 1.940804
v 11.290864 -3.991491 -1.961353
v 11.915853 -3.539384 -1.961353
vt 0.707371 0.686079
vt 0.669403 0.658899
vt 0.777114 0.652470
vt 0.820851 0.662919
vt 0.790139 0.684909
vt 0.785809 0.685167
vt 0.712222 0.689549
vt 0.058528 0.000000
vt 0.941979 0.000000
vt 1.000000 0.115339
vt 1.000000 1.000000
vt 0.116798 0.116798
vt 0.460083 0.316190
vt 0.464938 0.312717
vt 0.469849 0.313010
vt 0.540774 0.317247
vt 0.566549 0.335694
vt 0.519027 0.347044
vt 0.424845 0.341423
vt 0.941392 0.000000
vt 0.117051 0.000000
vt 1.000000 0.000000
vt 1.000000 0.883107
vt 0.057477 0.000000
vt 0.058089 0.058089
vt 1.000000 0.058145
vt 1.000000 0.942495
vt 0.941637 0.941637
vt 0.000000 0.000000
vt 1.000000 0.000000
vt 1.000000 0.883081
vt 0.883107 0.883107
vt 0.000000 0.000000
vt 1.000000 0.882949
vt 0.882975 0.882975
vt 0.884661 0.000000
vt 0.883081 0.883081
vt 1.000000 0.882975
vt 0.116798 0.000000
vt 0.058528 0.058528
vt 0.058089 0.000000
vt 0.941637 0.000000
vt 0.941979 0.941979
vt 0.057477 0.057477
vt 0.057505 0.000000
vt 0.941855 0.000000
vt 0.941392 0.941392
vn -0.000000 -0.000000 -1.000000
vn -0.000000 -0.000000 -1.000000
vn -0.000000 -0.000000 -1.000000
vn 0.000000 0.000000 -1.000000
vn 0.000000 0.000000 -1.000000
vn 0.000000 -0.000000 -1.000000
vn 0.000000 -0.000000 -1.000000
vn -0.993413 -0.114587 0.000110
vn -0.993413 -0.114587 0.000110
vn -0.993413 -0.114587 0.000110
vn -0.993413 -0.114587 0.000110
vn -0.993413 -0.114587 0.000110
vn 0.000000 0.000000 1.000000
vn 0.000000 0.000000 1.000000
vn 0.000000 0.000000 1.000000
vn 0.000000 0.000000 1.000000
vn 0.000000 0.000000 1.000000
vn 0.000000 0.000000 1.000000
vn 0.000000 0.000000 1.000000
vn 0.988853 0.113773 0.096046
vn 0.988853 0.113773 0.096046
vn 0.988853 0.113773 0.096046
vn 0.988853 0.113773 0.096046
vn 0.988853 0.113773 0.096046
vn 0.585224 0.809574 0.045843
vn 0.585224 0.809574 0.045843
vn 0.585224 0.809574 0.045843
vn 0.585224 0.809574 0.045843
vn 0.586108 -0.810232 0.000593
vn 0.586108 -0.810232 0.000593
vn 0.586108 -0.810232 0.000593
vn 0.586108 -0.810232 0.000593
vn 0.571544 -0.790127 0.221445
vn 0.571544 -0.790127 0.221445
vn 0.571544 -0.790127 0.221445
vn 0.571544 -0.790127 0.221445
vn 0.585844 -0.810424 -0.000418
vn 0.585844 -0.810424 -0.000418
vn 0.585844 -0.810424 -0.000418
vn 0.571020 -0.790153 0.222700
vn 0.571020 -0.790153 0.222700
vn 0.571020 -0.790153 0.222700
vn -0.903310 0.416991 0.100743
vn -0.903310 0.416991 0.100743
vn -0.903310 0.416991 0.100743
vn -0.903310 0.416991 0.100743
vn 0.988747 0.114165 0.096677
vn 0.988747 0.114165 0.096677
vn 0.988747 0.114165 0.096677
vn 0.988747 0.114165 0.096677
s 1
g glass_backup:Cube_cellFBXASC046014
f 51/49/51 50/50/52 59/48/53
f 49/51/54 53/52/55 50/50/52
f 53/52/55 54/53/56 50/50/52
f 59/48/53 50/50/52 46/54/57
f 50/50/52 54/53/56 46/54/57
s 3
f 36/56/58 38/57/59 35/55/60
f 38/57/59 31/58/61 35/55/60
f 35/55/60 31/58/61 52/59/62
s 4
f 37/66/63 44/60/64 47/65/65
f 48/64/66 47/65/65 55/63/67
f 44/60/64 57/61/68 47/65/65
f 57/61/68 56/62/69 47/65/65
f 56/62/69 55/63/67 47/65/65
s 6
f 60/70/70 39/71/71 32/69/72
f 43/68/73 32/69/72 42/67/74
f 42/67/74 32/69/72 39/71/71
s 7
f 41/73/75 40/74/76 33/72/77
f 33/72/77 40/74/76 34/75/78
s 8
f 60/79/79 32/76/80 45/78/81
f 32/76/80 31/77/82 45/78/81
s 9
f 43/81/83 58/82/84 32/69/85
f 31/80/86 32/69/85 58/82/84
s off
f 31/80/87 38/83/88 45/84/89
f 58/85/90 52/86/91 31/77/92
s 10
f 35/87/93 33/88/94 36/90/95
f 36/90/95 33/88/94 34/89/96
s 11
f 40/92/97 41/93/98 39/91/99
f 39/91/99 41/93/98 42/94/100
