# This file uses centimeters as units for non-parametric coordinates.

mtllib glass_3.mtl
g default
v -6.884483 2.310165 -1.961352
v -6.411302 1.925401 -1.961352
v -6.460151 1.891171 -1.961352
v -6.628800 1.781557 -1.961352
v -6.414431 1.920862 1.940805
v -9.164739 0.133324 1.940805
v -14.575715 8.561594 1.940803
v -14.664630 8.176364 1.940804
v -14.575231 8.560995 -1.961353
v -14.104239 8.178392 1.940804
v -16.139448 1.783339 -1.961352
v -16.025661 2.277078 -1.961352
v -16.518099 0.133889 1.940805
v -6.411302 1.925401 -1.961352
v -6.884483 2.310165 -1.961352
v -6.460151 1.891171 -1.961352
v -6.628800 1.781557 -1.961352
v -14.104239 8.178392 1.940804
v -6.414431 1.920862 1.940805
v -14.575231 8.560995 -1.961353
v -9.164739 0.133324 1.940805
v -14.664630 8.176364 1.940804
v -14.575715 8.561594 1.940803
v -16.518099 0.133889 1.940805
v -16.025661 2.277078 -1.961352
v -16.139448 1.783339 -1.961352
vt 0.587931 0.454902
vt 0.592042 0.457519
vt 0.587909 0.458013
vt 0.501629 0.468303
vt 0.501623 0.427480
vt 0.520822 0.412195
vt 0.057745 0.000000
vt 0.941691 0.000000
vt 0.941422 0.941422
vt 0.057795 0.057795
vt 0.769305 0.586598
vt 0.769324 0.533799
vt 0.774621 0.534431
vt 0.842035 0.542483
vt 0.774976 0.585178
vt 0.770848 0.587805
vt 0.770481 0.587534
vt 0.058337 0.058337
vt 1.000000 0.058309
vt 1.000000 0.942255
vt 0.942256 0.942256
vt 1.000000 0.941422
vt 0.057758 0.000000
vt 0.942154 0.000000
vt 1.000000 0.057795
vt 1.000000 0.942249
vt 0.058326 0.000000
vt 0.942079 0.000000
vt 1.000000 0.057957
vt 1.000000 0.942256
vt 0.057921 0.000000
vt 1.000000 0.058337
vt 0.057957 0.057957
vt 1.000000 0.058039
vt 1.000000 0.942254
vt 0.942249 0.942249
vt 0.058039 0.058039
vt 1.000000 0.057846
vt 1.000000 0.942242
vt 0.942254 0.942254
vn 0.000000 0.000002 1.000000
vn -0.000000 0.000000 1.000000
vn -0.000000 0.000000 1.000000
vn 0.000000 0.000000 1.000000
vn 0.000000 0.000000 1.000000
vn 0.000000 0.000000 1.000000
vn -0.000128 -0.921125 -0.389266
vn -0.000128 -0.921125 -0.389266
vn -0.000128 -0.921125 -0.389266
vn -0.000128 -0.921125 -0.389266
vn 0.000000 0.000000 -1.000000
vn 0.000000 0.000000 -1.000000
vn 0.000000 0.000000 -1.000000
vn 0.000000 0.000000 -1.000000
vn 0.000000 0.000000 -1.000000
vn 0.000000 0.000000 -1.000000
vn 0.000000 0.000000 -1.000000
vn 0.544954 -0.838466 -0.000005
vn 0.544954 -0.838466 -0.000005
vn 0.544954 -0.838466 -0.000005
vn 0.544954 -0.838466 -0.000005
vn -0.974457 0.224573 0.000370
vn -0.974457 0.224573 0.000370
vn -0.974457 0.224573 0.000370
vn -0.974457 0.224573 0.000370
vn 0.631157 0.775654 0.001355
vn 0.631157 0.775654 0.001355
vn 0.631157 0.775654 0.001355
vn 0.631157 0.775654 0.001355
vn 0.573859 -0.818954 -0.000493
vn 0.573859 -0.818954 -0.000493
vn 0.573859 -0.818954 -0.000493
vn 0.630720 0.776010 -0.000041
vn 0.630720 0.776010 -0.000041
vn 0.630720 0.776010 -0.000041
vn 0.630720 0.776010 -0.000041
vn -0.974381 0.224903 -0.000155
vn -0.974381 0.224903 -0.000155
vn -0.974381 0.224903 -0.000155
vn -0.974381 0.224903 -0.000155
s 1
g glass_backup:Cube_cellFBXASC046004
usemtl initialShadingGroup
f 23/2/1 22/3/2 18/1/3
f 19/6/4 18/1/3 21/5/5
f 24/4/6 21/5/5 22/3/2
f 18/1/3 22/3/2 21/5/5
s 2
f 4/7/7 6/8/8 26/10/9
f 26/10/9 6/8/8 13/9/10
s 3
f 14/16/11 16/17/12 15/15/13
f 11/12/14 25/13/15 17/11/16
f 16/17/12 17/11/16 15/15/13
f 17/11/16 25/13/15 15/15/13
f 25/13/15 20/14/17 15/15/13
s 5
f 3/21/18 5/18/19 4/20/20
f 5/18/19 6/19/21 4/20/20
s 6
f 26/25/22 13/22/23 12/24/24
f 13/22/23 8/23/25 12/24/24
s 7
f 2/28/26 1/29/27 5/27/28
f 10/26/29 5/27/28 1/29/27
s off
f 3/30/30 2/31/31 5/32/32
s 8
f 7/35/33 10/36/34 9/34/35
f 1/33/36 9/34/35 10/36/34
s 9
f 7/40/37 9/37/38 8/39/39
f 9/37/38 12/38/40 8/39/39
g default
v -6.884483 2.310165 -1.961352
v -6.411302 1.925401 -1.961352
v -6.460151 1.891171 -1.961352
v -6.628800 1.781557 -1.961352
v -6.414431 1.920862 1.940805
v -9.164739 0.133324 1.940805
v -14.575715 8.561594 1.940803
v -14.664630 8.176364 1.940804
v -14.575231 8.560995 -1.961353
v -14.104239 8.178392 1.940804
v -16.139448 1.783339 -1.961352
v -16.025661 2.277078 -1.961352
v -16.518099 0.133889 1.940805
v -6.411302 1.925401 -1.961352
v -6.884483 2.310165 -1.961352
v -6.460151 1.891171 -1.961352
v -6.628800 1.781557 -1.961352
v -14.104239 8.178392 1.940804
v -6.414431 1.920862 1.940805
v -14.575231 8.560995 -1.961353
v -9.164739 0.133324 1.940805
v -14.664630 8.176364 1.940804
v -14.575715 8.561594 1.940803
v -16.518099 0.133889 1.940805
v -16.025661 2.277078 -1.961352
v -16.139448 1.783339 -1.961352
vt 0.587931 0.454902
vt 0.592042 0.457519
vt 0.587909 0.458013
vt 0.501629 0.468303
vt 0.501623 0.427480
vt 0.520822 0.412195
vt 0.057745 0.000000
vt 0.941691 0.000000
vt 0.941422 0.941422
vt 0.057795 0.057795
vt 0.769305 0.586598
vt 0.769324 0.533799
vt 0.774621 0.534431
vt 0.842035 0.542483
vt 0.774976 0.585178
vt 0.770848 0.587805
vt 0.770481 0.587534
vt 0.058337 0.058337
vt 1.000000 0.058309
vt 1.000000 0.942255
vt 0.942256 0.942256
vt 1.000000 0.941422
vt 0.057758 0.000000
vt 0.942154 0.000000
vt 1.000000 0.057795
vt 1.000000 0.942249
vt 0.058326 0.000000
vt 0.942079 0.000000
vt 1.000000 0.057957
vt 1.000000 0.942256
vt 0.057921 0.000000
vt 1.000000 0.058337
vt 0.057957 0.057957
vt 1.000000 0.058039
vt 1.000000 0.942254
vt 0.942249 0.942249
vt 0.058039 0.058039
vt 1.000000 0.057846
vt 1.000000 0.942242
vt 0.942254 0.942254
vn 0.000000 0.000002 1.000000
vn -0.000000 0.000000 1.000000
vn -0.000000 0.000000 1.000000
vn 0.000000 0.000000 1.000000
vn 0.000000 0.000000 1.000000
vn 0.000000 0.000000 1.000000
vn -0.000128 -0.921125 -0.389266
vn -0.000128 -0.921125 -0.389266
vn -0.000128 -0.921125 -0.389266
vn -0.000128 -0.921125 -0.389266
vn 0.000000 0.000000 -1.000000
vn 0.000000 0.000000 -1.000000
vn 0.000000 0.000000 -1.000000
vn 0.000000 0.000000 -1.000000
vn 0.000000 0.000000 -1.000000
vn 0.000000 0.000000 -1.000000
vn 0.000000 0.000000 -1.000000
vn 0.544954 -0.838466 -0.000005
vn 0.544954 -0.838466 -0.000005
vn 0.544954 -0.838466 -0.000005
vn 0.544954 -0.838466 -0.000005
vn -0.974457 0.224573 0.000370
vn -0.974457 0.224573 0.000370
vn -0.974457 0.224573 0.000370
vn -0.974457 0.224573 0.000370
vn 0.631157 0.775654 0.001355
vn 0.631157 0.775654 0.001355
vn 0.631157 0.775654 0.001355
vn 0.631157 0.775654 0.001355
vn 0.573859 -0.818954 -0.000493
vn 0.573859 -0.818954 -0.000493
vn 0.573859 -0.818954 -0.000493
vn 0.630720 0.776010 -0.000041
vn 0.630720 0.776010 -0.000041
vn 0.630720 0.776010 -0.000041
vn 0.630720 0.776010 -0.000041
vn -0.974381 0.224903 -0.000155
vn -0.974381 0.224903 -0.000155
vn -0.974381 0.224903 -0.000155
vn -0.974381 0.224903 -0.000155
s 1
g glass_backup:Cube_cellFBXASC046004
f 49/42/41 48/43/42 44/41/43
f 45/46/44 44/41/43 47/45/45
f 50/44/46 47/45/45 48/43/42
f 44/41/43 48/43/42 47/45/45
s 2
f 30/47/47 32/48/48 52/50/49
f 52/50/49 32/48/48 39/49/50
s 3
f 40/56/51 42/57/52 41/55/53
f 37/52/54 51/53/55 43/51/56
f 42/57/52 43/51/56 41/55/53
f 43/51/56 51/53/55 41/55/53
f 51/53/55 46/54/57 41/55/53
s 5
f 29/61/58 31/58/59 30/60/60
f 31/58/59 32/59/61 30/60/60
s 6
f 52/65/62 39/62/63 38/64/64
f 39/62/63 34/63/65 38/64/64
s 7
f 28/68/66 27/69/67 31/67/68
f 36/66/69 31/67/68 27/69/67
s off
f 29/70/70 28/71/71 31/72/72
s 8
f 33/75/73 36/76/74 35/74/75
f 27/73/76 35/74/75 36/76/74
s 9
f 33/80/77 35/77/78 34/79/79
f 35/77/78 38/78/80 34/79/79
