# This file uses centimeters as units for non-parametric coordinates.

mtllib glass_7.mtl
g default
v 6.390435 -7.534924 -0.011768
v -3.370225 -5.316497 1.940802
v -3.583252 -5.065933 -1.961355
v -3.615638 -4.691191 -1.961355
v -2.842699 -11.420264 1.940803
v -2.821089 -11.669619 1.940803
v -3.010952 -11.669620 -1.961354
v 5.232451 2.502519 -1.961356
v 5.319412 1.747634 1.940801
v 6.387018 -7.501541 -1.961354
v 6.390836 -7.534836 -1.961354
v 6.327757 -6.992119 1.940802
v 6.331604 -7.025654 1.940802
v 4.800326 -11.669620 -1.961354
v 4.799922 -11.669620 -0.011355
v 4.547208 -11.669619 1.940803
v 4.676369 -11.333840 1.940803
v 5.319412 1.747634 1.940801
v -3.370225 -5.316497 1.940802
v -3.615638 -4.691191 -1.961355
v -3.583252 -5.065933 -1.961355
v -2.842699 -11.420264 1.940803
v -2.821089 -11.669619 1.940803
v -3.010952 -11.669620 -1.961354
v 5.232451 2.502519 -1.961356
v 6.387018 -7.501541 -1.961354
v 6.390836 -7.534836 -1.961354
v 6.327757 -6.992119 1.940802
v 6.331604 -7.025654 1.940802
v 4.800326 -11.669620 -1.961354
v 4.799922 -11.669620 -0.011355
v 4.547208 -11.669619 1.940803
v 4.676369 -11.333840 1.940803
vt 0.961331 0.000000
vt 0.884766 0.038722
vt 0.884354 0.884354
vt 0.000000 0.000000
vt 0.057565 0.057565
vt 1.000000 0.057640
vt 1.000000 0.942294
vt 0.942139 0.942139
vt 0.883200 0.000000
vt 0.961270 0.078085
vt 0.961331 0.961331
vt 0.883523 0.000000
vt 0.883200 0.883200
vt 0.058310 0.058310
vt 0.116477 0.000000
vt 1.000000 0.000000
vt 1.000000 0.884354
vt 0.942248 0.942248
vt 0.699865 0.603325
vt 0.777040 0.652446
vt 0.669715 0.658855
vt 0.669358 0.658876
vt 0.625000 0.650047
vt 0.625000 0.606682
vt 0.695845 0.603505
vt 0.057899 0.057899
vt 1.000000 0.057565
vt 1.000000 0.942139
vt 0.942160 0.942160
vt 0.518941 0.347072
vt 0.443157 0.395312
vt 0.377675 0.392384
vt 0.375000 0.392264
vt 0.375000 0.351359
vt 0.378602 0.350641
vt 0.424821 0.341452
vt 0.425180 0.341474
vt 0.481682 0.750000
vt 0.525047 0.750000
vt 0.525044 0.874931
vt 0.523641 1.000000
vt 0.482736 1.000000
vt 0.942160 0.000000
vt 0.941981 0.918730
vt 0.057892 0.034692
vt 0.057899 0.000000
vt 0.057640 0.057640
vt 1.000000 0.058310
vt 1.000000 0.942248
vt 0.942294 0.942294
vn 0.933327 -0.359027 0.000193
vn 0.933328 -0.359026 0.000189
vn 0.933329 -0.359022 0.000180
vn 0.933330 -0.359020 0.000176
vn -0.622493 0.765692 0.161923
vn -0.622493 0.765692 0.161923
vn -0.622493 0.765692 0.161923
vn -0.622493 0.765692 0.161923
vn 0.926592 -0.356425 0.119951
vn 0.926592 -0.356425 0.119951
vn 0.926592 -0.356425 0.119951
vn 0.926592 -0.356425 0.119951
vn 0.926640 -0.356021 0.120778
vn 0.926640 -0.356021 0.120778
vn 0.926640 -0.356021 0.120778
vn 0.993486 0.113957 0.000211
vn 0.993486 0.113957 0.000211
vn 0.993486 0.113957 0.000211
vn 0.993486 0.113957 0.000211
vn 0.993486 0.113957 0.000211
vn 0.000000 0.000000 -1.000000
vn 0.000000 0.000000 -1.000000
vn 0.000000 0.000000 -1.000000
vn 0.000000 0.000000 -1.000000
vn 0.000000 0.000000 -1.000000
vn 0.000000 0.000000 -1.000000
vn 0.000000 0.000000 -1.000000
vn -0.995099 -0.086002 0.048802
vn -0.995099 -0.086002 0.048802
vn -0.995099 -0.086002 0.048802
vn -0.995099 -0.086002 0.048802
vn 0.000000 0.000000 1.000000
vn 0.000000 0.000000 1.000000
vn 0.000000 0.000000 1.000000
vn 0.000000 0.000000 1.000000
vn 0.000000 0.000000 1.000000
vn 0.000000 0.000000 1.000000
vn 0.000000 0.000000 1.000000
vn 0.000000 0.000000 1.000000
vn 0.000000 -1.000000 0.000000
vn 0.000000 -1.000000 0.000000
vn 0.000000 -1.000000 0.000000
vn 0.000000 -1.000000 0.000000
vn 0.000000 -1.000000 0.000000
vn -0.995097 -0.086239 0.048418
vn -0.995097 -0.086239 0.048418
vn -0.995097 -0.086239 0.048418
vn -0.995097 -0.086239 0.048418
vn 0.993408 0.114633 0.000080
vn 0.993408 0.114633 0.000080
vn 0.993408 0.114633 0.000080
vn 0.993408 0.114633 0.000080
s 1
g glass_backup:Cube_cellFBXASC046017
usemtl initialShadingGroup
f 31/1/1 14/2/2 1/4/3
f 1/4/3 14/2/2 27/3/4
s 2
f 19/5/5 18/6/6 4/8/7
f 4/8/7 18/6/6 25/7/8
s 3
f 32/10/9 31/11/10 33/9/11
f 1/4/12 33/9/11 31/11/10
s off
f 1/4/13 29/12/14 33/13/15
s 4
f 12/14/16 29/15/17 10/18/18
f 27/17/19 10/18/18 1/16/20
f 29/15/17 1/16/20 10/18/18
s 5
f 8/20/21 26/21/22 20/19/23
f 20/19/23 26/21/22 21/25/24
f 21/25/24 26/21/22 24/24/25
f 26/21/22 11/22/26 24/24/25
f 11/22/26 30/23/27 24/24/25
s 6
f 4/28/28 3/29/29 19/27/30
f 22/26/31 19/27/30 3/29/29
s 7
f 9/30/32 2/31/33 28/37/34
f 2/31/33 5/32/35 28/37/34
f 28/37/34 5/32/35 13/36/36
f 23/33/37 16/34/38 5/32/35
f 16/34/38 17/35/39 5/32/35
f 5/32/35 17/35/39 13/36/36
s 9
f 24/38/40 30/39/41 23/42/42
f 30/39/41 15/40/43 23/42/42
f 15/40/43 16/41/44 23/42/42
s 10
f 6/45/45 22/46/46 7/44/47
f 3/43/48 7/44/47 22/46/46
s 11
f 12/48/49 10/49/50 18/47/51
f 18/47/51 10/49/50 25/50/52
g default
v 6.390435 -7.534924 -0.011768
v -3.370225 -5.316497 1.940802
v -3.583252 -5.065933 -1.961355
v -3.615638 -4.691191 -1.961355
v -2.842699 -11.420264 1.940803
v -2.821089 -11.669619 1.940803
v -3.010952 -11.669620 -1.961354
v 5.232451 2.502519 -1.961356
v 5.319412 1.747634 1.940801
v 6.387018 -7.501541 -1.961354
v 6.390836 -7.534836 -1.961354
v 6.327757 -6.992119 1.940802
v 6.331604 -7.025654 1.940802
v 4.800326 -11.669620 -1.961354
v 4.799922 -11.669620 -0.011355
v 4.547208 -11.669619 1.940803
v 4.676369 -11.333840 1.940803
v 5.319412 1.747634 1.940801
v -3.370225 -5.316497 1.940802
v -3.615638 -4.691191 -1.961355
v -3.583252 -5.065933 -1.961355
v -2.842699 -11.420264 1.940803
v -2.821089 -11.669619 1.940803
v -3.010952 -11.669620 -1.961354
v 5.232451 2.502519 -1.961356
v 6.387018 -7.501541 -1.961354
v 6.390836 -7.534836 -1.961354
v 6.327757 -6.992119 1.940802
v 6.331604 -7.025654 1.940802
v 4.800326 -11.669620 -1.961354
v 4.799922 -11.669620 -0.011355
v 4.547208 -11.669619 1.940803
v 4.676369 -11.333840 1.940803
vt 0.961331 0.000000
vt 0.884766 0.038722
vt 0.884354 0.884354
vt 0.000000 0.000000
vt 0.057565 0.057565
vt 1.000000 0.057640
vt 1.000000 0.942294
vt 0.942139 0.942139
vt 0.883200 0.000000
vt 0.961270 0.078085
vt 0.961331 0.961331
vt 0.883523 0.000000
vt 0.883200 0.883200
vt 0.058310 0.058310
vt 0.116477 0.000000
vt 1.000000 0.000000
vt 1.000000 0.884354
vt 0.942248 0.942248
vt 0.699865 0.603325
vt 0.777040 0.652446
vt 0.669715 0.658855
vt 0.669358 0.658876
vt 0.625000 0.650047
vt 0.625000 0.606682
vt 0.695845 0.603505
vt 0.057899 0.057899
vt 1.000000 0.057565
vt 1.000000 0.942139
vt 0.942160 0.942160
vt 0.518941 0.347072
vt 0.443157 0.395312
vt 0.377675 0.392384
vt 0.375000 0.392264
vt 0.375000 0.351359
vt 0.378602 0.350641
vt 0.424821 0.341452
vt 0.425180 0.341474
vt 0.481682 0.750000
vt 0.525047 0.750000
vt 0.525044 0.874931
vt 0.523641 1.000000
vt 0.482736 1.000000
vt 0.942160 0.000000
vt 0.941981 0.918730
vt 0.057892 0.034692
vt 0.057899 0.000000
vt 0.057640 0.057640
vt 1.000000 0.058310
vt 1.000000 0.942248
vt 0.942294 0.942294
vn 0.933327 -0.359027 0.000193
vn 0.933328 -0.359026 0.000189
vn 0.933329 -0.359022 0.000180
vn 0.933330 -0.359020 0.000176
vn -0.622493 0.765692 0.161923
vn -0.622493 0.765692 0.161923
vn -0.622493 0.765692 0.161923
vn -0.622493 0.765692 0.161923
vn 0.926592 -0.356425 0.119951
vn 0.926592 -0.356425 0.119951
vn 0.926592 -0.356425 0.119951
vn 0.926592 -0.356425 0.119951
vn 0.926640 -0.356021 0.120778
vn 0.926640 -0.356021 0.120778
vn 0.926640 -0.356021 0.120778
vn 0.993486 0.113957 0.000211
vn 0.993486 0.113957 0.000211
vn 0.993486 0.113957 0.000211
vn 0.993486 0.113957 0.000211
vn 0.993486 0.113957 0.000211
vn 0.000000 0.000000 -1.000000
vn 0.000000 0.000000 -1.000000
vn 0.000000 0.000000 -1.000000
vn 0.000000 0.000000 -1.000000
vn 0.000000 0.000000 -1.000000
vn 0.000000 0.000000 -1.000000
vn 0.000000 0.000000 -1.000000
vn -0.995099 -0.086002 0.048802
vn -0.995099 -0.086002 0.048802
vn -0.995099 -0.086002 0.048802
vn -0.995099 -0.086002 0.048802
vn 0.000000 0.000000 1.000000
vn 0.000000 0.000000 1.000000
vn 0.000000 0.000000 1.000000
vn 0.000000 0.000000 1.000000
vn 0.000000 0.000000 1.000000
vn 0.000000 0.000000 1.000000
vn 0.000000 0.000000 1.000000
vn 0.000000 0.000000 1.000000
vn 0.000000 -1.000000 0.000000
vn 0.000000 -1.000000 0.000000
vn 0.000000 -1.000000 0.000000
vn 0.000000 -1.000000 0.000000
vn 0.000000 -1.000000 0.000000
vn -0.995097 -0.086239 0.048418
vn -0.995097 -0.086239 0.048418
vn -0.995097 -0.086239 0.048418
vn -0.995097 -0.086239 0.048418
vn 0.993408 0.114633 0.000080
vn 0.993408 0.114633 0.000080
vn 0.993408 0.114633 0.000080
vn 0.993408 0.114633 0.000080
s 1
g glass_backup:Cube_cellFBXASC046017
f 64/51/53 47/52/54 34/54/55
f 34/54/55 47/52/54 60/53/56
s 2
f 52/55/57 51/56/58 37/58/59
f 37/58/59 51/56/58 58/57/60
s 3
f 65/60/61 64/61/62 66/59/63
f 34/54/64 66/59/63 64/61/62
s off
f 34/54/65 62/62/66 66/63/67
s 4
f 45/64/68 62/65/69 43/68/70
f 60/67/71 43/68/70 34/66/72
f 62/65/69 34/66/72 43/68/70
s 5
f 41/70/73 59/71/74 53/69/75
f 53/69/75 59/71/74 54/75/76
f 54/75/76 59/71/74 57/74/77
f 59/71/74 44/72/78 57/74/77
f 44/72/78 63/73/79 57/74/77
s 6
f 37/78/80 36/79/81 52/77/82
f 55/76/83 52/77/82 36/79/81
s 7
f 42/80/84 35/81/85 61/87/86
f 35/81/85 38/82/87 61/87/86
f 61/87/86 38/82/87 46/86/88
f 56/83/89 49/84/90 38/82/87
f 49/84/90 50/85/91 38/82/87
f 38/82/87 50/85/91 46/86/88
s 9
f 57/88/92 63/89/93 56/92/94
f 63/89/93 48/90/95 56/92/94
f 48/90/95 49/91/96 56/92/94
s 10
f 39/95/97 55/96/98 40/94/99
f 36/93/100 40/94/99 55/96/98
s 11
f 45/98/101 43/99/102 51/97/103
f 51/97/103 43/99/102 58/100/104
