# This file uses centimeters as units for non-parametric coordinates.

mtllib glass_13.mtl
g default
v 16.889975 11.633742 1.940804
v 17.059769 11.633742 -1.961352
v 16.241657 6.307982 -1.961351
v 16.262745 6.278467 1.940806
v 16.099464 6.490884 1.940805
v 19.154600 2.595497 -1.961351
v 19.108568 2.578379 -1.961351
v 19.368969 2.240479 1.940806
v 18.916561 2.827978 -1.961351
v 22.053373 11.633742 1.940804
v 21.293692 11.633742 -1.961352
v 22.054611 8.059860 1.940805
v 21.294680 7.235241 -1.961352
v 16.889975 11.633742 1.940804
v 17.059769 11.633742 -1.961352
v 16.241657 6.307982 -1.961351
v 16.099464 6.490884 1.940805
v 16.262745 6.278467 1.940806
v 19.154600 2.595497 -1.961351
v 19.108568 2.578379 -1.961351
v 18.916561 2.827978 -1.961351
v 19.368969 2.240479 1.940806
v 21.293692 11.633742 -1.961352
v 22.053373 11.633742 1.940804
v 22.054611 8.059860 1.940805
v 21.294680 7.235241 -1.961352
vt 0.567548 0.286320
vt 0.524240 0.269060
vt 0.586659 0.254166
vt 0.625000 0.254173
vt 0.625000 0.282838
vt 0.569827 0.287226
vt 0.379173 0.250000
vt 0.383390 0.000000
vt 0.406895 0.000000
vt 0.407838 0.250000
vt 0.057653 0.045095
vt 0.941538 0.044965
vt 0.941584 0.941584
vt 0.057902 0.057902
vt 0.058256 0.058256
vt 1.000000 0.057820
vt 0.942439 0.942439
vt 0.058471 0.058471
vt 1.000000 0.058260
vt 1.000000 0.942516
vt 0.942529 0.942529
vt 0.058260 0.058260
vt 0.058256 0.000000
vt 0.942439 0.000000
vt 0.942516 0.942516
vt 0.817865 0.713563
vt 0.875000 0.718105
vt 0.875000 0.741610
vt 0.827813 0.741615
vt 0.778037 0.729735
vt 0.777853 0.729479
vt 0.780531 0.728413
vt 0.058467 0.027153
vt 1.000000 0.058471
vt 1.000000 0.942529
vt 0.942190 0.910874
vt 0.057820 0.057820
vt 1.000000 0.057902
vt 1.000000 0.941584
vt 0.942412 0.942412
vn 0.000000 0.000000 1.000000
vn 0.000000 0.000000 1.000000
vn 0.000000 0.000000 1.000000
vn 0.000000 0.000000 1.000000
vn -0.000000 0.000000 1.000000
vn -0.000000 0.000000 1.000000
vn 0.000000 1.000000 0.000000
vn 0.000000 1.000000 0.000000
vn 0.000000 1.000000 0.000000
vn 0.000000 1.000000 0.000000
vn 0.981560 0.000274 -0.191153
vn 0.981560 0.000274 -0.191153
vn 0.981560 0.000274 -0.191153
vn 0.981560 0.000274 -0.191153
vn 0.346679 -0.932216 -0.103857
vn 0.346679 -0.932216 -0.103857
vn 0.346679 -0.932216 -0.103857
vn -0.792846 -0.609422 -0.000326
vn -0.792846 -0.609422 -0.000326
vn -0.792846 -0.609422 -0.000326
vn -0.792846 -0.609422 -0.000326
vn -0.792616 -0.609721 0.000096
vn -0.792616 -0.609721 0.000096
vn -0.792616 -0.609721 0.000096
vn -0.792616 -0.609721 0.000096
vn 0.000000 0.000000 -1.000000
vn 0.000000 0.000000 -1.000000
vn 0.000000 0.000000 -1.000000
vn 0.000000 0.000000 -1.000000
vn 0.000000 0.000000 -1.000000
vn 0.000000 0.000000 -1.000000
vn 0.000000 0.000000 -1.000000
vn -0.987484 0.151738 -0.043032
vn -0.987484 0.151738 -0.043032
vn -0.987484 0.151738 -0.043032
vn -0.987484 0.151738 -0.043032
vn 0.904504 -0.417328 -0.087808
vn 0.904504 -0.417328 -0.087808
vn 0.904504 -0.417328 -0.087808
vn 0.904504 -0.417328 -0.087808
s 1
g glass_backup:Cube_cellFBXASC046010
usemtl initialShadingGroup
f 8/2/1 25/3/2 18/1/3
f 24/4/4 14/5/5 25/3/2
f 18/1/3 25/3/2 17/6/6
f 25/3/2 14/5/5 17/6/6
s 3
f 24/7/7 23/8/8 14/10/9
f 14/10/9 23/8/8 15/9/10
s 4
f 10/12/11 12/13/12 11/11/13
f 11/11/13 12/13/12 26/14/14
s off
f 20/15/15 19/16/16 22/17/17
s 5
f 5/21/18 3/18/19 4/20/20
f 3/18/19 21/19/21 4/20/20
s 6
f 20/23/22 22/24/23 21/22/24
f 21/22/24 22/24/23 4/25/25
s 7
f 23/28/26 13/29/27 15/27/28
f 15/27/28 13/29/27 16/26/29
f 7/31/30 9/32/31 6/30/32
f 6/30/32 9/32/31 13/29/27
f 16/26/29 13/29/27 9/32/31
s 9
f 3/34/33 5/35/34 2/33/35
f 2/33/35 5/35/34 1/36/36
s 10
f 19/37/37 26/38/38 22/40/39
f 22/40/39 26/38/38 12/39/40
g default
v 16.889975 11.633742 1.940804
v 17.059769 11.633742 -1.961352
v 16.241657 6.307982 -1.961351
v 16.262745 6.278467 1.940806
v 16.099464 6.490884 1.940805
v 19.154600 2.595497 -1.961351
v 19.108568 2.578379 -1.961351
v 19.368969 2.240479 1.940806
v 18.916561 2.827978 -1.961351
v 22.053373 11.633742 1.940804
v 21.293692 11.633742 -1.961352
v 22.054611 8.059860 1.940805
v 21.294680 7.235241 -1.961352
v 16.889975 11.633742 1.940804
v 17.059769 11.633742 -1.961352
v 16.241657 6.307982 -1.961351
v 16.099464 6.490884 1.940805
v 16.262745 6.278467 1.940806
v 19.154600 2.595497 -1.961351
v 19.108568 2.578379 -1.961351
v 18.916561 2.827978 -1.961351
v 19.368969 2.240479 1.940806
v 21.293692 11.633742 -1.961352
v 22.053373 11.633742 1.940804
v 22.054611 8.059860 1.940805
v 21.294680 7.235241 -1.961352
vt 0.567548 0.286320
vt 0.524240 0.269060
vt 0.586659 0.254166
vt 0.625000 0.254173
vt 0.625000 0.282838
vt 0.569827 0.287226
vt 0.379173 0.250000
vt 0.383390 0.000000
vt 0.406895 0.000000
vt 0.407838 0.250000
vt 0.057653 0.045095
vt 0.941538 0.044965
vt 0.941584 0.941584
vt 0.057902 0.057902
vt 0.058256 0.058256
vt 1.000000 0.057820
vt 0.942439 0.942439
vt 0.058471 0.058471
vt 1.000000 0.058260
vt 1.000000 0.942516
vt 0.942529 0.942529
vt 0.058260 0.058260
vt 0.058256 0.000000
vt 0.942439 0.000000
vt 0.942516 0.942516
vt 0.817865 0.713563
vt 0.875000 0.718105
vt 0.875000 0.741610
vt 0.827813 0.741615
vt 0.778037 0.729735
vt 0.777853 0.729479
vt 0.780531 0.728413
vt 0.058467 0.027153
vt 1.000000 0.058471
vt 1.000000 0.942529
vt 0.942190 0.910874
vt 0.057820 0.057820
vt 1.000000 0.057902
vt 1.000000 0.941584
vt 0.942412 0.942412
vn 0.000000 0.000000 1.000000
vn 0.000000 0.000000 1.000000
vn 0.000000 0.000000 1.000000
vn 0.000000 0.000000 1.000000
vn -0.000000 0.000000 1.000000
vn -0.000000 0.000000 1.000000
vn 0.000000 1.000000 0.000000
vn 0.000000 1.000000 0.000000
vn 0.000000 1.000000 0.000000
vn 0.000000 1.000000 0.000000
vn 0.981560 0.000274 -0.191153
vn 0.981560 0.000274 -0.191153
vn 0.981560 0.000274 -0.191153
vn 0.981560 0.000274 -0.191153
vn 0.346679 -0.932216 -0.103857
vn 0.346679 -0.932216 -0.103857
vn 0.346679 -0.932216 -0.103857
vn -0.792846 -0.609422 -0.000326
vn -0.792846 -0.609422 -0.000326
vn -0.792846 -0.609422 -0.000326
vn -0.792846 -0.609422 -0.000326
vn -0.792616 -0.609721 0.000096
vn -0.792616 -0.609721 0.000096
vn -0.792616 -0.609721 0.000096
vn -0.792616 -0.609721 0.000096
vn 0.000000 0.000000 -1.000000
vn 0.000000 0.000000 -1.000000
vn 0.000000 0.000000 -1.000000
vn 0.000000 0.000000 -1.000000
vn 0.000000 0.000000 -1.000000
vn 0.000000 0.000000 -1.000000
vn 0.000000 0.000000 -1.000000
vn -0.987484 0.151738 -0.043032
vn -0.987484 0.151738 -0.043032
vn -0.987484 0.151738 -0.043032
vn -0.987484 0.151738 -0.043032
vn 0.904504 -0.417328 -0.087808
vn 0.904504 -0.417328 -0.087808
vn 0.904504 -0.417328 -0.087808
vn 0.904504 -0.417328 -0.087808
s 1
g glass_backup:Cube_cellFBXASC046010
f 34/42/41 51/43/42 44/41/43
f 50/44/44 40/45/45 51/43/42
f 44/41/43 51/43/42 43/46/46
f 51/43/42 40/45/45 43/46/46
s 3
f 50/47/47 49/48/48 40/50/49
f 40/50/49 49/48/48 41/49/50
s 4
f 36/52/51 38/53/52 37/51/53
f 37/51/53 38/53/52 52/54/54
s off
f 46/55/55 45/56/56 48/57/57
s 5
f 31/61/58 29/58/59 30/60/60
f 29/58/59 47/59/61 30/60/60
s 6
f 46/63/62 48/64/63 47/62/64
f 47/62/64 48/64/63 30/65/65
s 7
f 49/68/66 39/69/67 41/67/68
f 41/67/68 39/69/67 42/66/69
f 33/71/70 35/72/71 32/70/72
f 32/70/72 35/72/71 39/69/67
f 42/66/69 39/69/67 35/72/71
s 9
f 29/74/73 31/75/74 28/73/75
f 28/73/75 31/75/74 27/76/76
s 10
f 45/77/77 52/78/78 48/80/79
f 48/80/79 52/78/78 38/79/80
