# This file uses centimeters as units for non-parametric coordinates.

mtllib glass_5.mtl
g default
v -14.353622 -5.495969 1.940802
v -14.014722 -6.229201 -1.961355
v -14.226090 -6.183283 -1.961355
v -11.506875 -11.669622 -1.961354
v -11.506260 -11.669621 1.940803
v -14.784168 -11.669622 -1.961354
v -16.146442 -5.767905 -1.961355
v -16.050320 -6.185223 -1.961355
v -17.907316 -4.724054 1.940802
v -17.788691 -4.749713 1.940802
v -16.307329 -11.669621 1.940803
v -16.348839 -11.489820 1.940803
v -14.014722 -6.229201 -1.961355
v -14.226090 -6.183283 -1.961355
v -14.353622 -5.495969 1.940802
v -11.506260 -11.669621 1.940803
v -11.506875 -11.669622 -1.961354
v -16.146442 -5.767905 -1.961355
v -16.050320 -6.185223 -1.961355
v -17.907316 -4.724054 1.940802
v -17.788691 -4.749713 1.940802
v -16.348839 -11.489820 1.940803
v -14.784168 -11.669622 -1.961354
v -16.307329 -11.669621 1.940803
vt 0.416323 0.750000
vt 0.434517 0.750000
vt 0.434521 1.000000
vt 0.407868 1.000000
vt 0.969835 0.027742
vt 0.969825 0.911478
vt 0.942042 0.942042
vt 0.058067 0.058067
vt 0.625000 0.559517
vt 0.625000 0.541323
vt 0.683837 0.534294
vt 0.688314 0.533761
vt 0.683858 0.544421
vt 0.683365 0.545595
vt 0.376929 0.467363
vt 0.375000 0.467133
vt 0.375000 0.440479
vt 0.441231 0.456286
vt 0.449237 0.475356
vt 0.449512 0.476015
vt 0.058115 0.058115
vt 0.972099 0.057709
vt 0.972157 0.942180
vt 0.942193 0.942193
vt 0.058192 0.058192
vt 1.000000 0.058067
vt 1.000000 0.942042
vt 0.942049 0.942049
vt 1.000000 0.942193
vt 0.058183 0.000000
vt 0.941908 0.000000
vt 1.000000 0.058115
vt 1.000000 0.942049
vt 0.058092 0.000000
vt 0.941817 0.000000
vt 1.000000 0.058192
vn 0.000000 -1.000000 0.000000
vn 0.000000 -1.000000 0.000000
vn 0.000000 -1.000000 0.000000
vn 0.000000 -1.000000 0.000001
vn 0.908112 0.418727 0.000022
vn 0.908112 0.418727 0.000022
vn 0.908112 0.418727 0.000022
vn 0.908112 0.418727 0.000022
vn 0.000000 0.000000 -1.000000
vn 0.000000 0.000000 -1.000000
vn 0.000000 0.000000 -1.000000
vn 0.000000 0.000000 -1.000000
vn 0.000000 0.000000 -1.000000
vn 0.000000 0.000000 -1.000000
vn 0.000000 0.000000 1.000000
vn 0.000000 0.000000 1.000000
vn 0.000000 0.000000 1.000000
vn 0.000000 0.000000 1.000000
vn 0.000000 0.000000 1.000000
vn 0.000000 0.000000 1.000000
vn -0.910725 -0.210253 -0.355491
vn -0.910725 -0.210253 -0.355491
vn -0.910725 -0.210253 -0.355491
vn -0.910725 -0.210253 -0.355491
vn 0.209456 0.964141 -0.162975
vn 0.209456 0.964141 -0.162975
vn 0.209456 0.964141 -0.162975
vn 0.209456 0.964141 -0.162975
vn -0.911022 -0.209851 -0.354967
vn -0.911022 -0.209851 -0.354967
vn -0.911022 -0.209851 -0.354967
vn -0.911022 -0.209851 -0.354967
vn 0.208559 0.964193 -0.163815
vn 0.208559 0.964193 -0.163815
vn 0.208559 0.964193 -0.163815
vn 0.208559 0.964193 -0.163815
s 1
g glass_backup:Cube_cellFBXASC046019
usemtl initialShadingGroup
f 17/2/1 16/3/2 23/1/3
f 23/1/3 16/3/2 24/4/4
s 2
f 4/6/5 2/7/6 5/5/7
f 5/5/7 2/7/6 15/8/8
s 3
f 17/9/9 23/10/10 13/14/11
f 18/12/12 14/13/13 19/11/14
f 13/14/11 23/10/10 14/13/13
f 23/10/10 19/11/14 14/13/13
s 5
f 16/17/15 1/18/16 24/16/17
f 24/16/17 1/18/16 22/15/18
f 20/20/19 22/15/18 21/19/20
f 22/15/18 1/18/16 21/19/20
s 6
f 11/23/21 12/24/22 6/22/23
f 8/21/24 6/22/23 12/24/22
s 7
f 2/27/25 3/28/26 15/26/27
f 10/25/28 15/26/27 3/28/26
s 8
f 7/31/29 8/32/30 9/30/31
f 12/29/32 9/30/31 8/32/30
s 9
f 9/35/33 10/36/34 7/34/35
f 3/33/36 7/34/35 10/36/34
g default
v -14.353622 -5.495969 1.940802
v -14.014722 -6.229201 -1.961355
v -14.226090 -6.183283 -1.961355
v -11.506875 -11.669622 -1.961354
v -11.506260 -11.669621 1.940803
v -14.784168 -11.669622 -1.961354
v -16.146442 -5.767905 -1.961355
v -16.050320 -6.185223 -1.961355
v -17.907316 -4.724054 1.940802
v -17.788691 -4.749713 1.940802
v -16.307329 -11.669621 1.940803
v -16.348839 -11.489820 1.940803
v -14.014722 -6.229201 -1.961355
v -14.226090 -6.183283 -1.961355
v -14.353622 -5.495969 1.940802
v -11.506260 -11.669621 1.940803
v -11.506875 -11.669622 -1.961354
v -16.146442 -5.767905 -1.961355
v -16.050320 -6.185223 -1.961355
v -17.907316 -4.724054 1.940802
v -17.788691 -4.749713 1.940802
v -16.348839 -11.489820 1.940803
v -14.784168 -11.669622 -1.961354
v -16.307329 -11.669621 1.940803
vt 0.416323 0.750000
vt 0.434517 0.750000
vt 0.434521 1.000000
vt 0.407868 1.000000
vt 0.969835 0.027742
vt 0.969825 0.911478
vt 0.942042 0.942042
vt 0.058067 0.058067
vt 0.625000 0.559517
vt 0.625000 0.541323
vt 0.683837 0.534294
vt 0.688314 0.533761
vt 0.683858 0.544421
vt 0.683365 0.545595
vt 0.376929 0.467363
vt 0.375000 0.467133
vt 0.375000 0.440479
vt 0.441231 0.456286
vt 0.449237 0.475356
vt 0.449512 0.476015
vt 0.058115 0.058115
vt 0.972099 0.057709
vt 0.972157 0.942180
vt 0.942193 0.942193
vt 0.058192 0.058192
vt 1.000000 0.058067
vt 1.000000 0.942042
vt 0.942049 0.942049
vt 1.000000 0.942193
vt 0.058183 0.000000
vt 0.941908 0.000000
vt 1.000000 0.058115
vt 1.000000 0.942049
vt 0.058092 0.000000
vt 0.941817 0.000000
vt 1.000000 0.058192
vn 0.000000 -1.000000 0.000000
vn 0.000000 -1.000000 0.000000
vn 0.000000 -1.000000 0.000000
vn 0.000000 -1.000000 0.000001
vn 0.908112 0.418727 0.000022
vn 0.908112 0.418727 0.000022
vn 0.908112 0.418727 0.000022
vn 0.908112 0.418727 0.000022
vn 0.000000 0.000000 -1.000000
vn 0.000000 0.000000 -1.000000
vn 0.000000 0.000000 -1.000000
vn 0.000000 0.000000 -1.000000
vn 0.000000 0.000000 -1.000000
vn 0.000000 0.000000 -1.000000
vn 0.000000 0.000000 1.000000
vn 0.000000 0.000000 1.000000
vn 0.000000 0.000000 1.000000
vn 0.000000 0.000000 1.000000
vn 0.000000 0.000000 1.000000
vn 0.000000 0.000000 1.000000
vn -0.910725 -0.210253 -0.355491
vn -0.910725 -0.210253 -0.355491
vn -0.910725 -0.210253 -0.355491
vn -0.910725 -0.210253 -0.355491
vn 0.209456 0.964141 -0.162975
vn 0.209456 0.964141 -0.162975
vn 0.209456 0.964141 -0.162975
vn 0.209456 0.964141 -0.162975
vn -0.911022 -0.209851 -0.354967
vn -0.911022 -0.209851 -0.354967
vn -0.911022 -0.209851 -0.354967
vn -0.911022 -0.209851 -0.354967
vn 0.208559 0.964193 -0.163815
vn 0.208559 0.964193 -0.163815
vn 0.208559 0.964193 -0.163815
vn 0.208559 0.964193 -0.163815
s 1
g glass_backup:Cube_cellFBXASC046019
f 41/38/37 40/39/38 47/37/39
f 47/37/39 40/39/38 48/40/40
s 2
f 28/42/41 26/43/42 29/41/43
f 29/41/43 26/43/42 39/44/44
s 3
f 41/45/45 47/46/46 37/50/47
f 42/48/48 38/49/49 43/47/50
f 37/50/47 47/46/46 38/49/49
f 47/46/46 43/47/50 38/49/49
s 5
f 40/53/51 25/54/52 48/52/53
f 48/52/53 25/54/52 46/51/54
f 44/56/55 46/51/54 45/55/56
f 46/51/54 25/54/52 45/55/56
s 6
f 35/59/57 36/60/58 30/58/59
f 32/57/60 30/58/59 36/60/58
s 7
f 26/63/61 27/64/62 39/62/63
f 34/61/64 39/62/63 27/64/62
s 8
f 31/67/65 32/68/66 33/66/67
f 36/65/68 33/66/67 32/68/66
s 9
f 33/71/69 34/72/70 31/70/71
f 27/69/72 31/70/71 34/72/70
