# This file uses centimeters as units for non-parametric coordinates.

mtllib glass_9.mtl
g default
v -6.194574 1.924660 1.940804
v -3.783845 11.633740 -1.961353
v -3.783936 11.633741 1.940803
v -6.195156 1.922951 -1.961352
v -6.030230 1.500202 -1.961352
v -3.371570 -5.311171 1.940806
v -3.615751 -4.683637 -1.961351
v -3.519578 -4.932098 1.940807
v 5.691367 11.633741 1.940803
v 5.565166 11.633740 -1.961353
v 7.115338 6.591179 -1.961353
v 6.996334 6.333014 -1.961353
v 5.320567 1.757103 1.940805
v 5.429776 1.993651 1.940805
v 5.232353 2.512228 -1.961352
v 7.364735 6.191333 1.940805
v -3.783936 11.633741 1.940803
v -6.194574 1.924660 1.940804
v -3.783845 11.633740 -1.961353
v -6.195156 1.922951 -1.961352
v -6.030230 1.500202 -1.961352
v -3.615751 -4.683637 -1.961351
v -3.519578 -4.932098 1.940807
v 5.232353 2.512228 -1.961352
v -3.371570 -5.311171 1.940806
v 5.320567 1.757103 1.940805
v 5.691367 11.633741 1.940803
v 7.364735 6.191333 1.940805
v 5.565166 11.633740 -1.961353
v 7.115338 6.591179 -1.961353
v 6.996334 6.333014 -1.961353
v 5.429776 1.993651 1.940805
vt 0.818133 0.662238
vt 0.777144 0.652445
vt 0.699946 0.603325
vt 0.766287 0.589921
vt 0.770822 0.589005
vt 0.875000 0.602392
vt 0.875000 0.654293
vt 0.820903 0.662898
vt 0.522609 0.250000
vt 0.470007 0.250000
vt 0.470707 0.000000
vt 0.522608 0.000000
vt 1.000000 0.942261
vt 0.058358 0.000000
vt 0.941944 0.000000
vt 1.000000 0.058095
vt 0.058095 0.058095
vt 1.000000 0.058528
vt 1.000000 0.942287
vt 0.942261 0.942261
vt 0.057915 0.057915
vt 0.057958 0.000000
vt 0.942374 0.000000
vt 0.941675 0.941675
vt 0.970322 0.027860
vt 0.970720 0.912252
vt 1.000000 0.057626
vt 1.000000 0.942042
vt 0.566613 0.335717
vt 0.625000 0.345007
vt 0.625000 0.397609
vt 0.520840 0.410992
vt 0.447281 0.396141
vt 0.443214 0.395320
vt 0.519043 0.347065
vt 0.521581 0.346459
vt 0.058340 0.000000
vt 0.941701 0.000000
vt 0.942287 0.942287
vt 0.058528 0.058528
vt 0.058340 0.058340
vt 1.000000 0.057915
vt 1.000000 0.941675
vt 0.941701 0.941701
vt 1.000000 0.941642
vt 0.057619 0.016751
vt 0.942137 0.016741
vt 1.000000 0.058057
vn 0.000000 -0.000000 -1.000000
vn -0.000000 -0.000000 -1.000000
vn 0.000000 -0.000000 -1.000000
vn 0.000000 -0.000000 -1.000000
vn -0.000000 -0.000000 -1.000000
vn -0.000000 -0.000000 -1.000000
vn -0.000000 -0.000000 -1.000000
vn 0.000000 -0.000000 -1.000000
vn 0.000000 1.000000 0.000000
vn 0.000000 1.000000 0.000000
vn 0.000000 1.000000 0.000000
vn 0.000000 1.000000 0.000000
vn -0.931615 -0.363447 0.000298
vn -0.931615 -0.363447 0.000298
vn -0.931615 -0.363447 0.000298
vn -0.931615 -0.363447 0.000298
vn -0.931513 -0.363709 -0.000200
vn -0.931513 -0.363709 -0.000200
vn -0.931513 -0.363709 -0.000200
vn -0.931513 -0.363709 -0.000200
vn 0.903568 -0.416508 -0.100428
vn 0.903568 -0.416508 -0.100428
vn 0.903568 -0.416508 -0.100428
vn 0.903568 -0.416508 -0.100428
vn 0.955388 0.293728 -0.030931
vn 0.955388 0.293728 -0.030931
vn 0.955388 0.293728 -0.030931
vn 0.955388 0.293728 -0.030931
vn 0.000000 0.000000 1.000000
vn 0.000000 0.000000 1.000000
vn 0.000000 0.000000 1.000000
vn 0.000000 0.000000 1.000000
vn 0.000000 0.000000 1.000000
vn 0.000000 0.000000 1.000000
vn 0.000000 0.000000 1.000000
vn 0.000000 0.000000 1.000000
vn 0.622581 -0.765572 -0.162150
vn 0.622581 -0.765572 -0.162150
vn 0.622581 -0.765572 -0.162150
vn 0.622581 -0.765572 -0.162150
vn 0.903257 -0.417016 -0.101118
vn 0.903257 -0.417016 -0.101118
vn 0.903257 -0.417016 -0.101118
vn 0.903257 -0.417016 -0.101118
vn -0.970530 0.240982 0.000008
vn -0.970530 0.240982 0.000008
vn -0.970530 0.240982 0.000008
vn -0.970530 0.240982 0.000008
s 1
g glass_backup:Cube_cellFBXASC046013
usemtl initialShadingGroup
f 22/3/1 21/4/2 24/2/3
f 19/6/4 29/7/5 20/5/6
f 29/7/5 30/8/7 20/5/6
f 30/8/7 31/1/8 20/5/6
f 20/5/6 31/1/8 21/4/2
f 31/1/8 24/2/3 21/4/2
s 3
f 27/10/9 29/11/10 17/9/11
f 17/9/11 29/11/10 19/12/12
s 4
f 4/15/13 5/16/14 1/14/15
f 23/13/16 1/14/15 5/16/14
s 5
f 25/19/17 23/20/18 7/18/19
f 5/17/20 7/18/19 23/20/18
s 6
f 11/22/21 28/23/22 12/21/23
f 12/21/23 28/23/22 32/24/24
s 7
f 10/25/25 9/26/26 11/28/27
f 11/28/27 9/26/26 28/27/28
s 8
f 6/34/29 26/35/30 8/33/31
f 8/33/31 26/35/30 18/32/32
f 18/32/32 26/35/30 17/31/33
f 26/35/30 14/36/34 17/31/33
f 14/36/34 16/29/35 17/31/33
f 16/29/35 27/30/36 17/31/33
s 9
f 15/37/37 13/38/38 7/40/39
f 7/40/39 13/38/38 25/39/40
s 10
f 13/44/41 15/41/42 32/43/43
f 15/41/42 12/42/44 32/43/43
s 11
f 1/45/45 3/46/46 4/48/47
f 4/48/47 3/46/46 2/47/48
g default
v -6.194574 1.924660 1.940804
v -3.783845 11.633740 -1.961353
v -3.783936 11.633741 1.940803
v -6.195156 1.922951 -1.961352
v -6.030230 1.500202 -1.961352
v -3.371570 -5.311171 1.940806
v -3.615751 -4.683637 -1.961351
v -3.519578 -4.932098 1.940807
v 5.691367 11.633741 1.940803
v 5.565166 11.633740 -1.961353
v 7.115338 6.591179 -1.961353
v 6.996334 6.333014 -1.961353
v 5.320567 1.757103 1.940805
v 5.429776 1.993651 1.940805
v 5.232353 2.512228 -1.961352
v 7.364735 6.191333 1.940805
v -3.783936 11.633741 1.940803
v -6.194574 1.924660 1.940804
v -3.783845 11.633740 -1.961353
v -6.195156 1.922951 -1.961352
v -6.030230 1.500202 -1.961352
v -3.615751 -4.683637 -1.961351
v -3.519578 -4.932098 1.940807
v 5.232353 2.512228 -1.961352
v -3.371570 -5.311171 1.940806
v 5.320567 1.757103 1.940805
v 5.691367 11.633741 1.940803
v 7.364735 6.191333 1.940805
v 5.565166 11.633740 -1.961353
v 7.115338 6.591179 -1.961353
v 6.996334 6.333014 -1.961353
v 5.429776 1.993651 1.940805
vt 0.818133 0.662238
vt 0.777144 0.652445
vt 0.699946 0.603325
vt 0.766287 0.589921
vt 0.770822 0.589005
vt 0.875000 0.602392
vt 0.875000 0.654293
vt 0.820903 0.662898
vt 0.522609 0.250000
vt 0.470007 0.250000
vt 0.470707 0.000000
vt 0.522608 0.000000
vt 1.000000 0.942261
vt 0.058358 0.000000
vt 0.941944 0.000000
vt 1.000000 0.058095
vt 0.058095 0.058095
vt 1.000000 0.058528
vt 1.000000 0.942287
vt 0.942261 0.942261
vt 0.057915 0.057915
vt 0.057958 0.000000
vt 0.942374 0.000000
vt 0.941675 0.941675
vt 0.970322 0.027860
vt 0.970720 0.912252
vt 1.000000 0.057626
vt 1.000000 0.942042
vt 0.566613 0.335717
vt 0.625000 0.345007
vt 0.625000 0.397609
vt 0.520840 0.410992
vt 0.447281 0.396141
vt 0.443214 0.395320
vt 0.519043 0.347065
vt 0.521581 0.346459
vt 0.058340 0.000000
vt 0.941701 0.000000
vt 0.942287 0.942287
vt 0.058528 0.058528
vt 0.058340 0.058340
vt 1.000000 0.057915
vt 1.000000 0.941675
vt 0.941701 0.941701
vt 1.000000 0.941642
vt 0.057619 0.016751
vt 0.942137 0.016741
vt 1.000000 0.058057
vn 0.000000 -0.000000 -1.000000
vn -0.000000 -0.000000 -1.000000
vn 0.000000 -0.000000 -1.000000
vn 0.000000 -0.000000 -1.000000
vn -0.000000 -0.000000 -1.000000
vn -0.000000 -0.000000 -1.000000
vn -0.000000 -0.000000 -1.000000
vn 0.000000 -0.000000 -1.000000
vn 0.000000 1.000000 0.000000
vn 0.000000 1.000000 0.000000
vn 0.000000 1.000000 0.000000
vn 0.000000 1.000000 0.000000
vn -0.931615 -0.363447 0.000298
vn -0.931615 -0.363447 0.000298
vn -0.931615 -0.363447 0.000298
vn -0.931615 -0.363447 0.000298
vn -0.931513 -0.363709 -0.000200
vn -0.931513 -0.363709 -0.000200
vn -0.931513 -0.363709 -0.000200
vn -0.931513 -0.363709 -0.000200
vn 0.903568 -0.416508 -0.100428
vn 0.903568 -0.416508 -0.100428
vn 0.903568 -0.416508 -0.100428
vn 0.903568 -0.416508 -0.100428
vn 0.955388 0.293728 -0.030931
vn 0.955388 0.293728 -0.030931
vn 0.955388 0.293728 -0.030931
vn 0.955388 0.293728 -0.030931
vn 0.000000 0.000000 1.000000
vn 0.000000 0.000000 1.000000
vn 0.000000 0.000000 1.000000
vn 0.000000 0.000000 1.000000
vn 0.000000 0.000000 1.000000
vn 0.000000 0.000000 1.000000
vn 0.000000 0.000000 1.000000
vn 0.000000 0.000000 1.000000
vn 0.622581 -0.765572 -0.162150
vn 0.622581 -0.765572 -0.162150
vn 0.622581 -0.765572 -0.162150
vn 0.622581 -0.765572 -0.162150
vn 0.903257 -0.417016 -0.101118
vn 0.903257 -0.417016 -0.101118
vn 0.903257 -0.417016 -0.101118
vn 0.903257 -0.417016 -0.101118
vn -0.970530 0.240982 0.000008
vn -0.970530 0.240982 0.000008
vn -0.970530 0.240982 0.000008
vn -0.970530 0.240982 0.000008
s 1
g glass_backup:Cube_cellFBXASC046013
f 54/51/49 53/52/50 56/50/51
f 51/54/52 61/55/53 52/53/54
f 61/55/53 62/56/55 52/53/54
f 62/56/55 63/49/56 52/53/54
f 52/53/54 63/49/56 53/52/50
f 63/49/56 56/50/51 53/52/50
s 3
f 59/58/57 61/59/58 49/57/59
f 49/57/59 61/59/58 51/60/60
s 4
f 36/63/61 37/64/62 33/62/63
f 55/61/64 33/62/63 37/64/62
s 5
f 57/67/65 55/68/66 39/66/67
f 37/65/68 39/66/67 55/68/66
s 6
f 43/70/69 60/71/70 44/69/71
f 44/69/71 60/71/70 64/72/72
s 7
f 42/73/73 41/74/74 43/76/75
f 43/76/75 41/74/74 60/75/76
s 8
f 38/82/77 58/83/78 40/81/79
f 40/81/79 58/83/78 50/80/80
f 50/80/80 58/83/78 49/79/81
f 58/83/78 46/84/82 49/79/81
f 46/84/82 48/77/83 49/79/81
f 48/77/83 59/78/84 49/79/81
s 9
f 47/85/85 45/86/86 39/88/87
f 39/88/87 45/86/86 57/87/88
s 10
f 45/92/89 47/89/90 64/91/91
f 47/89/90 44/90/92 64/91/91
s 11
f 33/93/93 35/94/94 36/96/95
f 36/96/95 35/94/94 34/95/96
