# This file uses centimeters as units for non-parametric coordinates.

mtllib glass_20.mtl
g default
v 11.897827 -3.919131 -0.007665
v 11.214867 -11.669619 -1.961354
v 10.718370 -11.669619 -0.057087
v 10.705748 -11.669619 -0.008488
v 10.705741 -11.669619 0.037736
v 10.706930 -11.669618 1.940803
v 15.890525 -6.806600 1.940802
v 11.755312 -4.843436 1.940802
v 11.897304 -3.920262 1.940802
v 12.354093 -4.250959 -1.961355
v 12.213020 -5.167993 -1.961355
v 16.151634 -11.669619 -1.961354
v 16.151072 -11.669618 1.940803
v 16.410660 -7.182767 1.940803
v 16.395273 -7.450377 1.940802
v 15.885167 -6.802963 -1.961355
v 16.409660 -7.182284 -1.961355
v 16.157791 -11.563396 -1.961355
v 11.755312 -4.843436 1.940802
v 10.706930 -11.669618 1.940803
v 10.718370 -11.669619 -0.057087
v 10.705748 -11.669619 -0.008488
v 10.705741 -11.669619 0.037736
v 11.214867 -11.669619 -1.961354
v 15.890525 -6.806600 1.940802
v 11.897304 -3.920262 1.940802
v 12.354093 -4.250959 -1.961355
v 12.213020 -5.167993 -1.961355
v 16.151072 -11.669618 1.940803
v 16.151634 -11.669619 -1.961354
v 16.410660 -7.182767 1.940803
v 16.395273 -7.450377 1.940802
v 15.885167 -6.802963 -1.961355
v 16.409660 -7.182284 -1.961355
v 16.157791 -11.563396 -1.961355
vt 0.427171 0.288386
vt 0.458136 0.310554
vt 0.448232 0.311343
vt 0.375000 0.317163
vt 0.375000 0.286940
vt 0.420264 0.285584
vt 0.423135 0.285498
vt 0.625000 0.685657
vt 0.694750 0.691198
vt 0.704588 0.691981
vt 0.677210 0.711584
vt 0.673140 0.714496
vt 0.626140 0.713098
vt 0.625000 0.713064
vt 0.000000 0.000000
vt 0.883339 0.000000
vt 0.884731 0.884731
vt 0.979048 0.000000
vt 1.000000 0.020956
vt 1.000000 0.883384
vt 0.883339 0.883339
vt 0.884202 0.000000
vt 1.000000 0.115843
vt 1.000000 0.978005
vt 0.979048 0.979048
vt 0.883765 0.000000
vt 0.884202 0.884202
vt 0.588064 0.750000
vt 0.588060 1.000000
vt 0.557837 1.000000
vt 0.557831 0.878076
vt 0.557831 0.875115
vt 0.557901 0.872001
vt 0.560657 0.750000
vt 0.115843 0.115843
vt 0.978059 0.115783
vt 0.978005 0.978005
vt 0.942490 0.000000
vt 0.941810 0.906017
vt 0.058463 0.022810
vt 0.058481 0.000000
vt 0.020956 0.020956
vt 0.884681 0.020993
vt 0.883384 0.883384
vt 1.000000 0.941519
vt 0.058227 0.000000
vt 0.942474 0.000000
vt 1.000000 0.057511
vt 0.058227 0.058227
vt 0.116235 0.000000
vt 1.000000 0.000000
vt 1.000000 0.884731
vt 0.942474 0.942474
vn 0.000000 0.000000 1.000000
vn 0.000000 0.000000 1.000000
vn -0.000000 0.000000 1.000000
vn 0.000000 0.000000 1.000000
vn 0.000000 0.000000 1.000000
vn 0.000000 -0.000000 1.000000
vn -0.000000 0.000000 1.000000
vn 0.000000 0.000000 -1.000000
vn 0.000000 0.000000 -1.000000
vn 0.000000 0.000000 -1.000000
vn 0.000000 0.000000 -1.000000
vn 0.000000 0.000000 -1.000000
vn 0.000000 0.000000 -1.000000
vn 0.000000 0.000000 -1.000000
vn 0.585803 0.810453 0.000629
vn 0.585803 0.810453 0.000629
vn 0.585803 0.810453 0.000629
vn -0.988378 0.152019 -0.000177
vn -0.988378 0.152019 -0.000177
vn -0.988378 0.152019 -0.000177
vn -0.988378 0.152019 -0.000177
vn -0.988378 0.152019 -0.000177
vn -0.957347 0.147273 -0.248591
vn -0.957347 0.147273 -0.248591
vn -0.957347 0.147273 -0.248591
vn -0.957347 0.147273 -0.248591
vn -0.957347 0.147273 -0.248591
vn 0.585760 0.810484 -0.000859
vn 0.585760 0.810484 -0.000859
vn 0.585760 0.810484 -0.000859
vn 0.000000 -1.000000 0.000000
vn 0.000000 -1.000000 0.000000
vn 0.000000 -1.000000 0.000000
vn 0.000000 -1.000000 0.000000
vn 0.000000 -1.000000 0.000000
vn 0.000000 -1.000000 0.000000
vn 0.000000 -1.000000 0.000000
vn -0.957146 0.146944 -0.249559
vn -0.957146 0.146944 -0.249559
vn -0.957146 0.146944 -0.249559
vn 0.998329 -0.057783 0.000147
vn 0.998329 -0.057783 0.000147
vn 0.998329 -0.057783 0.000147
vn 0.998329 -0.057783 0.000147
vn -0.988411 0.151803 0.000620
vn -0.988411 0.151803 0.000620
vn -0.988411 0.151803 0.000620
vn 0.998352 -0.057395 -0.000263
vn 0.998352 -0.057395 -0.000263
vn 0.998352 -0.057395 -0.000263
vn 0.998352 -0.057395 -0.000263
vn 0.586020 0.810297 -0.000049
vn 0.586020 0.810297 -0.000049
vn 0.586020 0.810297 -0.000049
vn 0.586020 0.810297 -0.000049
vn 0.586020 0.810297 -0.000049
s 1
g glass_backup:Cube_cellFBXASC046018
usemtl initialShadingGroup
f 26/2/1 19/3/2 25/1/3
f 19/3/2 20/4/4 25/1/3
f 29/5/5 32/6/6 20/4/4
f 25/1/3 20/4/4 31/7/7
f 20/4/4 32/6/6 31/7/7
s 3
f 27/10/8 16/11/9 28/9/10
f 28/9/10 16/11/9 24/8/11
f 30/14/12 24/8/11 35/13/13
f 16/11/9 34/12/14 24/8/11
f 24/8/11 34/12/14 35/13/13
s off
f 1/15/15 9/16/16 7/17/17
s 5
f 22/18/18 23/19/19 1/15/20
f 9/21/21 1/15/20 8/20/22
f 1/15/20 23/19/19 8/20/22
s 6
f 22/25/23 1/15/24 21/24/25
f 10/22/26 11/23/27 1/15/24
f 1/15/24 11/23/27 21/24/25
s off
f 1/15/28 33/26/29 10/27/30
s 7
f 30/28/31 29/29/32 24/34/33
f 24/34/33 29/29/32 3/33/34
f 3/33/34 29/29/32 4/32/35
f 4/32/35 29/29/32 5/31/36
f 29/29/32 20/30/37 5/31/36
s off
f 11/35/38 2/36/39 21/37/40
s 8
f 12/40/41 18/41/42 13/39/43
f 15/38/44 13/39/43 18/41/42
s off
f 23/42/45 6/43/46 8/44/47
s 9
f 14/47/48 15/48/49 17/46/50
f 18/45/51 17/46/50 15/48/49
s 10
f 14/53/52 17/49/53 7/52/54
f 17/49/53 33/50/55 7/52/54
f 33/50/55 1/51/56 7/52/54
