# This file uses centimeters as units for non-parametric coordinates.

mtllib glass_14.mtl
g default
v 22.805056 11.633739 -1.961352
v 22.805056 11.633739 1.940806
v 22.059530 11.633739 1.940806
v 21.299058 11.633739 -1.961352
v 22.805056 8.062961 1.940806
v 22.805056 7.236753 -1.961351
v 22.060438 8.062306 1.940806
v 21.299014 7.236426 -1.961351
v 22.059530 11.633739 1.940806
v 21.299058 11.633739 -1.961352
v 22.805056 8.062961 1.940806
v 22.805056 7.236753 -1.961351
v 22.060438 8.062306 1.940806
v 21.299014 7.236426 -1.961351
vt 0.978009 0.941687
vt 0.057627 0.057627
vt 0.383361 0.000000
vt 0.875000 0.741639
vt 1.000000 0.057627
vt 0.961292 0.058255
vt 0.941881 0.941881
vt 0.375000 0.250000
vt 0.375000 0.750000
vt 0.625000 0.250000
vt 0.379139 0.250000
vt 0.625000 0.254139
vt 0.862448 0.803982
vt 0.375000 0.000000
vt 0.375000 0.500000
vt 0.875000 0.750000
vt 0.327829 0.500000
vt 0.827829 0.750000
vt 0.827825 0.741639
vt 0.094744 0.058469
vt 0.336692 0.750000
vt 0.586692 0.250000
vt 0.586685 0.254134
vt 1.000000 0.941881
vn 0.000000 1.000000 -0.000000
vn 0.000000 1.000000 -0.000000
vn 0.000000 1.000000 -0.000000
vn 0.000000 1.000000 -0.000000
vn 1.000000 0.000000 0.000001
vn 1.000000 0.000000 0.000001
vn 1.000000 0.000000 0.000001
vn 1.000000 0.000000 0.000001
vn -0.981510 -0.000106 0.191412
vn -0.981510 -0.000106 0.191412
vn -0.981510 -0.000106 0.191412
vn -0.981510 -0.000106 0.191412
vn 0.000427 -0.978328 0.207059
vn 0.000427 -0.978328 0.207059
vn 0.000427 -0.978328 0.207059
vn 0.000427 -0.978328 0.207059
vn 0.000000 -0.000000 -1.000000
vn 0.000000 -0.000000 -1.000000
vn 0.000000 -0.000000 -1.000000
vn 0.000000 -0.000000 -1.000000
vn 0.000000 0.000000 1.000000
vn 0.000000 0.000000 1.000000
vn 0.000000 0.000000 1.000000
vn 0.000000 0.000000 1.000000
s off
g Cube_cellFBXASC046006
usemtl Cube_cellSG
f 1/14/1 10/3/2 9/11/3 2/8/4
f 1/15/5 2/9/6 11/21/7 12/17/8
f 3/1/9 4/20/10 14/5/11 13/24/12
f 14/2/13 6/6/14 5/13/15 13/7/16
f 10/4/17 1/16/18 12/18/19 8/19/20
f 11/22/21 2/10/22 9/12/23 7/23/24
