# This file uses centimeters as units for non-parametric coordinates.

mtllib glass_17.mtl
g default
v 22.805046 -11.669623 -1.961354
v 22.805046 -11.669622 1.940803
v 16.155010 -11.669623 -1.961354
v 16.155874 -11.669622 1.940803
v 18.686937 -4.717231 -1.961355
v 18.992037 -4.389290 1.940802
v 18.913662 -4.881021 -1.961355
v 16.415579 -7.179985 1.940803
v 16.413807 -7.180074 -1.961355
v 22.805046 -7.695245 -1.961355
v 22.805046 -7.143930 1.940802
v 22.668863 -7.045444 1.940802
v 16.413807 -7.180074 -1.961355
v 16.155010 -11.669623 -1.961354
v 16.155874 -11.669622 1.940803
v 18.686937 -4.717231 -1.961355
v 18.913662 -4.881021 -1.961355
v 16.415579 -7.179985 1.940803
v 18.992037 -4.389290 1.940802
v 22.668863 -7.045444 1.940802
v 22.805046 -7.143930 1.940802
v 22.805046 -7.695245 -1.961355
vt 0.125000 0.500000
vt 0.167637 0.500000
vt 0.173552 0.750000
vt 0.125000 0.750000
vt 0.941920 0.000000
vt 1.000000 0.058277
vt 1.000000 0.941755
vt 0.058118 0.000000
vt 0.588087 1.000000
vt 0.588082 0.750000
vt 0.625000 0.750000
vt 0.625000 1.000000
vt 0.375000 0.250000
vt 0.423552 0.250000
vt 0.424608 0.250756
vt 0.453104 0.271168
vt 0.423165 0.285471
vt 0.375000 0.286913
vt 0.058245 0.000000
vt 0.941723 0.000000
vt 0.964358 0.058295
vt 0.964085 0.942391
vt 0.699586 0.727138
vt 0.697829 0.728397
vt 0.667637 0.750000
vt 0.625000 0.713082
vt 0.673164 0.714519
vt 0.058118 0.058118
vt 1.000000 0.057919
vt 1.000000 0.941908
vt 0.941920 0.941920
vt 0.057919 0.057919
vt 0.057922 0.025862
vt 0.942000 0.025891
vt 0.941908 0.941908
vn 1.000000 0.000000 0.000000
vn 1.000000 -0.000000 0.000000
vn 1.000000 -0.000000 0.000000
vn 1.000000 -0.000000 0.000000
vn -0.734792 0.678293 0.000383
vn -0.734792 0.678293 0.000383
vn -0.734792 0.678293 0.000383
vn -0.734792 0.678293 0.000383
vn 0.000000 -1.000000 0.000000
vn 0.000000 -1.000000 0.000000
vn 0.000000 -1.000000 0.000000
vn 0.000000 -1.000000 0.000000
vn 0.000000 0.000000 1.000000
vn 0.000000 0.000000 1.000000
vn 0.000000 0.000000 1.000000
vn 0.000000 0.000000 1.000000
vn 0.000000 0.000000 1.000000
vn 0.000000 0.000000 1.000000
vn -0.998337 0.057649 0.000336
vn -0.998337 0.057649 0.000336
vn -0.998337 0.057649 0.000336
vn -0.998337 0.057649 0.000336
vn 0.000000 0.000000 -1.000000
vn 0.000000 0.000000 -1.000000
vn 0.000000 0.000000 -1.000000
vn 0.000000 0.000000 -1.000000
vn 0.000000 0.000000 -1.000000
vn 0.000000 0.000000 -1.000000
vn 0.581825 0.805400 -0.113179
vn 0.581825 0.805400 -0.113179
vn 0.581825 0.805400 -0.113179
vn 0.581825 0.805400 -0.113179
vn 0.582204 0.805047 -0.113740
vn 0.582204 0.805047 -0.113740
vn 0.582204 0.805047 -0.113740
vn 0.582204 0.805047 -0.113740
s 1
g glass_backup:Cube_cellFBXASC046008
usemtl initialShadingGroup
f 1/1/1 22/2/2 2/4/3
f 2/4/3 22/2/2 21/3/4
s 2
f 13/6/5 18/7/6 5/5/7
f 5/5/7 18/7/6 19/8/8
s 3
f 15/9/9 14/10/10 2/12/11
f 2/12/11 14/10/10 1/11/12
s 4
f 15/18/13 2/13/14 8/17/15
f 2/13/14 21/14/16 8/17/15
f 21/14/16 20/15/17 8/17/15
f 20/15/17 6/16/18 8/17/15
s 5
f 18/19/19 13/20/20 4/22/21
f 4/22/21 13/20/20 3/21/22
s 6
f 14/26/23 9/27/24 1/11/25
f 1/11/25 9/27/24 22/25/26
f 16/23/27 17/24/28 9/27/24
f 17/24/28 22/25/26 9/27/24
s 7
f 5/31/29 19/28/30 7/30/31
f 19/28/30 12/29/32 7/30/31
s 8
f 11/33/33 10/34/34 12/32/35
f 12/32/35 10/34/34 7/35/36
g default
v 22.805046 -11.669623 -1.961354
v 22.805046 -11.669622 1.940803
v 16.155010 -11.669623 -1.961354
v 16.155874 -11.669622 1.940803
v 18.686937 -4.717231 -1.961355
v 18.992037 -4.389290 1.940802
v 18.913662 -4.881021 -1.961355
v 16.415579 -7.179985 1.940803
v 16.413807 -7.180074 -1.961355
v 22.805046 -7.695245 -1.961355
v 22.805046 -7.143930 1.940802
v 22.668863 -7.045444 1.940802
v 16.413807 -7.180074 -1.961355
v 16.155010 -11.669623 -1.961354
v 16.155874 -11.669622 1.940803
v 18.686937 -4.717231 -1.961355
v 18.913662 -4.881021 -1.961355
v 16.415579 -7.179985 1.940803
v 18.992037 -4.389290 1.940802
v 22.668863 -7.045444 1.940802
v 22.805046 -7.143930 1.940802
v 22.805046 -7.695245 -1.961355
vt 0.125000 0.500000
vt 0.167637 0.500000
vt 0.173552 0.750000
vt 0.125000 0.750000
vt 0.941920 0.000000
vt 1.000000 0.058277
vt 1.000000 0.941755
vt 0.058118 0.000000
vt 0.588087 1.000000
vt 0.588082 0.750000
vt 0.625000 0.750000
vt 0.625000 1.000000
vt 0.375000 0.250000
vt 0.423552 0.250000
vt 0.424608 0.250756
vt 0.453104 0.271168
vt 0.423165 0.285471
vt 0.375000 0.286913
vt 0.058245 0.000000
vt 0.941723 0.000000
vt 0.964358 0.058295
vt 0.964085 0.942391
vt 0.699586 0.727138
vt 0.697829 0.728397
vt 0.667637 0.750000
vt 0.625000 0.713082
vt 0.673164 0.714519
vt 0.058118 0.058118
vt 1.000000 0.057919
vt 1.000000 0.941908
vt 0.941920 0.941920
vt 0.057919 0.057919
vt 0.057922 0.025862
vt 0.942000 0.025891
vt 0.941908 0.941908
vn 1.000000 0.000000 0.000000
vn 1.000000 -0.000000 0.000000
vn 1.000000 -0.000000 0.000000
vn 1.000000 -0.000000 0.000000
vn -0.734792 0.678293 0.000383
vn -0.734792 0.678293 0.000383
vn -0.734792 0.678293 0.000383
vn -0.734792 0.678293 0.000383
vn 0.000000 -1.000000 0.000000
vn 0.000000 -1.000000 0.000000
vn 0.000000 -1.000000 0.000000
vn 0.000000 -1.000000 0.000000
vn 0.000000 0.000000 1.000000
vn 0.000000 0.000000 1.000000
vn 0.000000 0.000000 1.000000
vn 0.000000 0.000000 1.000000
vn 0.000000 0.000000 1.000000
vn 0.000000 0.000000 1.000000
vn -0.998337 0.057649 0.000336
vn -0.998337 0.057649 0.000336
vn -0.998337 0.057649 0.000336
vn -0.998337 0.057649 0.000336
vn 0.000000 0.000000 -1.000000
vn 0.000000 0.000000 -1.000000
vn 0.000000 0.000000 -1.000000
vn 0.000000 0.000000 -1.000000
vn 0.000000 0.000000 -1.000000
vn 0.000000 0.000000 -1.000000
vn 0.581825 0.805400 -0.113179
vn 0.581825 0.805400 -0.113179
vn 0.581825 0.805400 -0.113179
vn 0.581825 0.805400 -0.113179
vn 0.582204 0.805047 -0.113740
vn 0.582204 0.805047 -0.113740
vn 0.582204 0.805047 -0.113740
vn 0.582204 0.805047 -0.113740
s 1
g glass_backup:Cube_cellFBXASC046008
f 23/36/37 44/37/38 24/39/39
f 24/39/39 44/37/38 43/38/40
s 2
f 35/41/41 40/42/42 27/40/43
f 27/40/43 40/42/42 41/43/44
s 3
f 37/44/45 36/45/46 24/47/47
f 24/47/47 36/45/46 23/46/48
s 4
f 37/53/49 24/48/50 30/52/51
f 24/48/50 43/49/52 30/52/51
f 43/49/52 42/50/53 30/52/51
f 42/50/53 28/51/54 30/52/51
s 5
f 40/54/55 35/55/56 26/57/57
f 26/57/57 35/55/56 25/56/58
s 6
f 36/61/59 31/62/60 23/46/61
f 23/46/61 31/62/60 44/60/62
f 38/58/63 39/59/64 31/62/60
f 39/59/64 44/60/62 31/62/60
s 7
f 27/66/65 41/63/66 29/65/67
f 41/63/66 34/64/68 29/65/67
s 8
f 33/68/69 32/69/70 34/67/71
f 34/67/71 32/69/70 29/70/72
